<svg width="250" height="251" viewBox="0 0 250 251" fill="none" xmlns="http://www.w3.org/2000/svg">
<path d="M11.5385 0.0644531H0V11.6029H11.5385V0.0644531Z" fill="#FFDA54"/>
<path d="M19.2307 0.0644531H7.69226V11.6029H19.2307V0.0644531Z" fill="#FFDA54"/>
<path d="M26.923 0.0644531H15.3845V11.6029H26.923V0.0644531Z" fill="#FFDA54"/>
<path d="M34.6155 0.0644531H23.0771V11.6029H34.6155V0.0644531Z" fill="#FFDA54"/>
<path d="M42.3075 0.0644531H30.769V11.6029H42.3075V0.0644531Z" fill="#FFDA54"/>
<path d="M50.0001 0.0644531H38.4616V11.6029H50.0001V0.0644531Z" fill="#FFDA54"/>
<path d="M57.6923 0.0644531H46.1539V11.6029H57.6923V0.0644531Z" fill="#FFDA54"/>
<path d="M65.3846 0.0644531H53.8461V11.6029H65.3846V0.0644531Z" fill="#FFDA54"/>
<path d="M73.0769 0.0644531H61.5384V11.6029H73.0769V0.0644531Z" fill="#FFDA54"/>
<path d="M80.7694 0.0644531H69.231V11.6029H80.7694V0.0644531Z" fill="#FFDA54"/>
<path d="M88.4614 0.0644531H76.9229V11.6029H88.4614V0.0644531Z" fill="#FFDA54"/>
<path d="M96.1539 0.0644531H84.6155V11.6029H96.1539V0.0644531Z" fill="#FFDA54"/>
<path d="M103.846 0.0644531H92.3077V11.6029H103.846V0.0644531Z" fill="#FFDA54"/>
<path d="M111.538 0.0644531H100V11.6029H111.538V0.0644531Z" fill="#FFDA54"/>
<path d="M119.231 0.0644531H107.692V11.6029H119.231V0.0644531Z" fill="#FFDA54"/>
<path d="M126.923 0.0644531H115.385V11.6029H126.923V0.0644531Z" fill="#FFDA54"/>
<path d="M134.615 0.0644531H123.077V11.6029H134.615V0.0644531Z" fill="#FFDA54"/>
<path d="M142.308 0.0644531H130.769V11.6029H142.308V0.0644531Z" fill="#FFDA54"/>
<path d="M150 0.0644531H138.462V11.6029H150V0.0644531Z" fill="#FFDA54"/>
<path d="M157.692 0.0644531H146.154V11.6029H157.692V0.0644531Z" fill="#FFDA54"/>
<path d="M165.385 0.0644531H153.846V11.6029H165.385V0.0644531Z" fill="#FFDA54"/>
<path d="M173.077 0.0644531H161.538V11.6029H173.077V0.0644531Z" fill="#FFDA54"/>
<path d="M180.769 0.0644531H169.231V11.6029H180.769V0.0644531Z" fill="#FFDA54"/>
<path d="M188.462 0.0644531H176.923V11.6029H188.462V0.0644531Z" fill="#FFDA54"/>
<path d="M196.154 0.0644531H184.615V11.6029H196.154V0.0644531Z" fill="#FFDA54"/>
<path d="M203.846 0.0644531H192.308V11.6029H203.846V0.0644531Z" fill="#FFDA54"/>
<path d="M211.538 0.0644531H200V11.6029H211.538V0.0644531Z" fill="#FFDA54"/>
<path d="M219.231 0.0644531H207.692V11.6029H219.231V0.0644531Z" fill="#FFDA54"/>
<path d="M226.923 0.0644531H215.385V11.6029H226.923V0.0644531Z" fill="#FFDA54"/>
<path d="M234.615 0.0644531H223.077V11.6029H234.615V0.0644531Z" fill="#FFDA54"/>
<path d="M242.308 0.0644531H230.769V11.6029H242.308V0.0644531Z" fill="#FFDA54"/>
<path d="M19.2307 7.75684H7.69226V19.2953H19.2307V7.75684Z" fill="#FFDA54"/>
<path d="M26.923 7.75684H15.3845V19.2953H26.923V7.75684Z" fill="#FFDA54"/>
<path d="M34.6155 7.75684H23.0771V19.2953H34.6155V7.75684Z" fill="#FFDA54"/>
<path d="M42.3075 7.75684H30.769V19.2953H42.3075V7.75684Z" fill="#FFDA54"/>
<path d="M50.0001 7.75684H38.4616V19.2953H50.0001V7.75684Z" fill="#FFDA54"/>
<path d="M57.6923 7.75684H46.1539V19.2953H57.6923V7.75684Z" fill="#FFDA54"/>
<path d="M65.3846 7.75684H53.8461V19.2953H65.3846V7.75684Z" fill="#FFDA54"/>
<path d="M73.0769 7.75684H61.5384V19.2953H73.0769V7.75684Z" fill="#FFDA54"/>
<path d="M80.7694 7.75684H69.231V19.2953H80.7694V7.75684Z" fill="#FFDA54"/>
<path d="M88.4614 7.75684H76.9229V19.2953H88.4614V7.75684Z" fill="#FFDA54"/>
<path d="M96.1539 7.75684H84.6155V19.2953H96.1539V7.75684Z" fill="#FFDA54"/>
<path d="M103.846 7.75684H92.3077V19.2953H103.846V7.75684Z" fill="#FFDA54"/>
<path d="M111.538 7.75684H100V19.2953H111.538V7.75684Z" fill="#FFDA54"/>
<path d="M119.231 7.75684H107.692V19.2953H119.231V7.75684Z" fill="#FFDA54"/>
<path d="M126.923 7.75684H115.385V19.2953H126.923V7.75684Z" fill="#FFDA54"/>
<path d="M134.615 7.75684H123.077V19.2953H134.615V7.75684Z" fill="#FFDA54"/>
<path d="M142.308 7.75684H130.769V19.2953H142.308V7.75684Z" fill="#FFDA54"/>
<path d="M150 7.75684H138.462V19.2953H150V7.75684Z" fill="#FFDA54"/>
<path d="M157.692 7.75684H146.154V19.2953H157.692V7.75684Z" fill="#FFDA54"/>
<path d="M165.385 7.75684H153.846V19.2953H165.385V7.75684Z" fill="#FFDA54"/>
<path d="M173.077 7.75684H161.538V19.2953H173.077V7.75684Z" fill="#FFDA54"/>
<path d="M180.769 7.75684H169.231V19.2953H180.769V7.75684Z" fill="#FFDA54"/>
<path d="M188.462 7.75684H176.923V19.2953H188.462V7.75684Z" fill="#FFDA54"/>
<path d="M196.154 7.75684H184.615V19.2953H196.154V7.75684Z" fill="#FFDA54"/>
<path d="M203.846 7.75684H192.308V19.2953H203.846V7.75684Z" fill="#FFDA54"/>
<path d="M211.538 7.75684H200V19.2953H211.538V7.75684Z" fill="#FFDA54"/>
<path d="M219.231 7.75684H207.692V19.2953H219.231V7.75684Z" fill="#FFDA54"/>
<path d="M226.923 7.75684H215.385V19.2953H226.923V7.75684Z" fill="#FFDA54"/>
<path d="M234.615 7.75684H223.077V19.2953H234.615V7.75684Z" fill="#FFDA54"/>
<path d="M242.308 7.75684H230.769V19.2953H242.308V7.75684Z" fill="#FFDA54"/>
<path d="M250 7.75684H238.462V19.2953H250V7.75684Z" fill="#FFDA54"/>
<path d="M11.5385 15.4492H0V26.9877H11.5385V15.4492Z" fill="#FFDA54"/>
<path d="M19.2307 15.4492H7.69226V26.9877H19.2307V15.4492Z" fill="#FFDA54"/>
<path d="M26.923 15.4492H15.3845V26.9877H26.923V15.4492Z" fill="#FFDA54"/>
<path d="M34.6155 15.4492H23.0771V26.9877H34.6155V15.4492Z" fill="#FFDA54"/>
<path d="M42.3075 15.4492H30.769V26.9877H42.3075V15.4492Z" fill="#FFDA54"/>
<path d="M50.0001 15.4492H38.4616V26.9877H50.0001V15.4492Z" fill="#FFDA54"/>
<path d="M57.6923 15.4492H46.1539V26.9877H57.6923V15.4492Z" fill="#FFDA54"/>
<path d="M65.3846 15.4492H53.8461V26.9877H65.3846V15.4492Z" fill="#FFDA54"/>
<path d="M73.0769 15.4492H61.5384V26.9877H73.0769V15.4492Z" fill="#FFDA54"/>
<path d="M80.7694 15.4492H69.231V26.9877H80.7694V15.4492Z" fill="#FFDA54"/>
<path d="M88.4614 15.4492H76.9229V26.9877H88.4614V15.4492Z" fill="#FFDA54"/>
<path d="M96.1539 15.4492H84.6155V26.9877H96.1539V15.4492Z" fill="#FFDA54"/>
<path d="M103.846 15.4492H92.3077V26.9877H103.846V15.4492Z" fill="#FFDA54"/>
<path d="M111.538 15.4492H100V26.9877H111.538V15.4492Z" fill="#FFDA54"/>
<path d="M119.231 15.4492H107.692V26.9877H119.231V15.4492Z" fill="#3D3431"/>
<path d="M126.923 15.4492H115.385V26.9877H126.923V15.4492Z" fill="#3D3431"/>
<path d="M134.615 15.4492H123.077V26.9877H134.615V15.4492Z" fill="#3D3431"/>
<path d="M142.308 15.4492H130.769V26.9877H142.308V15.4492Z" fill="#3D3431"/>
<path d="M150 15.4492H138.462V26.9877H150V15.4492Z" fill="#3D3431"/>
<path d="M157.692 15.4492H146.154V26.9877H157.692V15.4492Z" fill="#FFDA54"/>
<path d="M165.385 15.4492H153.846V26.9877H165.385V15.4492Z" fill="#FFDA54"/>
<path d="M173.077 15.4492H161.538V26.9877H173.077V15.4492Z" fill="#FFDA54"/>
<path d="M180.769 15.4492H169.231V26.9877H180.769V15.4492Z" fill="#FFDA54"/>
<path d="M188.462 15.4492H176.923V26.9877H188.462V15.4492Z" fill="#FFDA54"/>
<path d="M196.154 15.4492H184.615V26.9877H196.154V15.4492Z" fill="#FFDA54"/>
<path d="M203.846 15.4492H192.308V26.9877H203.846V15.4492Z" fill="#FFDA54"/>
<path d="M211.538 15.4492H200V26.9877H211.538V15.4492Z" fill="#FFDA54"/>
<path d="M219.231 15.4492H207.692V26.9877H219.231V15.4492Z" fill="#FFDA54"/>
<path d="M226.923 15.4492H215.385V26.9877H226.923V15.4492Z" fill="#FFDA54"/>
<path d="M234.615 15.4492H223.077V26.9877H234.615V15.4492Z" fill="#FFDA54"/>
<path d="M242.308 15.4492H230.769V26.9877H242.308V15.4492Z" fill="#FFDA54"/>
<path d="M250 15.4492H238.462V26.9877H250V15.4492Z" fill="#FFDA54"/>
<path d="M11.5385 23.1416H0V34.6801H11.5385V23.1416Z" fill="#FFDA54"/>
<path d="M19.2307 23.1416H7.69226V34.6801H19.2307V23.1416Z" fill="#FFDA54"/>
<path d="M26.923 23.1416H15.3845V34.6801H26.923V23.1416Z" fill="#FFDA54"/>
<path d="M34.6155 23.1416H23.0771V34.6801H34.6155V23.1416Z" fill="#FFDA54"/>
<path d="M42.3075 23.1416H30.769V34.6801H42.3075V23.1416Z" fill="#FFDA54"/>
<path d="M50.0001 23.1416H38.4616V34.6801H50.0001V23.1416Z" fill="#FFDA54"/>
<path d="M57.6923 23.1416H46.1539V34.6801H57.6923V23.1416Z" fill="#FFDA54"/>
<path d="M65.3846 23.1416H53.8461V34.6801H65.3846V23.1416Z" fill="#FFDA54"/>
<path d="M73.0769 23.1416H61.5384V34.6801H73.0769V23.1416Z" fill="#FFDA54"/>
<path d="M80.7694 23.1416H69.231V34.6801H80.7694V23.1416Z" fill="#FFDA54"/>
<path d="M88.4614 23.1416H76.9229V34.6801H88.4614V23.1416Z" fill="#FFDA54"/>
<path d="M96.1539 23.1416H84.6155V34.6801H96.1539V23.1416Z" fill="#FFDA54"/>
<path d="M103.846 23.1416H92.3077V34.6801H103.846V23.1416Z" fill="#3D3431"/>
<path d="M111.538 23.1416H100V34.6801H111.538V23.1416Z" fill="#3D3431"/>
<path d="M119.231 23.1416H107.692V34.6801H119.231V23.1416Z" fill="#3D3431"/>
<path d="M126.923 23.1416H115.385V34.6801H126.923V23.1416Z" fill="#AF1818"/>
<path d="M134.615 23.1416H123.077V34.6801H134.615V23.1416Z" fill="#AF1818"/>
<path d="M142.308 23.1416H130.769V34.6801H142.308V23.1416Z" fill="#AF1818"/>
<path d="M150 23.1416H138.462V34.6801H150V23.1416Z" fill="#3D3431"/>
<path d="M157.692 23.1416H146.154V34.6801H157.692V23.1416Z" fill="#3D3431"/>
<path d="M165.385 23.1416H153.846V34.6801H165.385V23.1416Z" fill="#FFDA54"/>
<path d="M173.077 23.1416H161.538V34.6801H173.077V23.1416Z" fill="#FFDA54"/>
<path d="M180.769 23.1416H169.231V34.6801H180.769V23.1416Z" fill="#FFDA54"/>
<path d="M188.462 23.1416H176.923V34.6801H188.462V23.1416Z" fill="#FFDA54"/>
<path d="M196.154 23.1416H184.615V34.6801H196.154V23.1416Z" fill="#FFDA54"/>
<path d="M203.846 23.1416H192.308V34.6801H203.846V23.1416Z" fill="#FFDA54"/>
<path d="M211.538 23.1416H200V34.6801H211.538V23.1416Z" fill="#FFDA54"/>
<path d="M219.231 23.1416H207.692V34.6801H219.231V23.1416Z" fill="#FFDA54"/>
<path d="M226.923 23.1416H215.385V34.6801H226.923V23.1416Z" fill="#FFDA54"/>
<path d="M234.615 23.1416H223.077V34.6801H234.615V23.1416Z" fill="#FFDA54"/>
<path d="M242.308 23.1416H230.769V34.6801H242.308V23.1416Z" fill="#FFDA54"/>
<path d="M250 23.1416H238.462V34.6801H250V23.1416Z" fill="#FFDA54"/>
<path d="M11.5385 30.834H0V42.3724H11.5385V30.834Z" fill="#FFDA54"/>
<path d="M19.2307 30.834H7.69226V42.3724H19.2307V30.834Z" fill="#FFDA54"/>
<path d="M26.923 30.834H15.3845V42.3724H26.923V30.834Z" fill="#FFDA54"/>
<path d="M34.6155 30.834H23.0771V42.3724H34.6155V30.834Z" fill="#FFDA54"/>
<path d="M42.3075 30.834H30.769V42.3724H42.3075V30.834Z" fill="#FFDA54"/>
<path d="M50.0001 30.834H38.4616V42.3724H50.0001V30.834Z" fill="#FFDA54"/>
<path d="M57.6923 30.834H46.1539V42.3724H57.6923V30.834Z" fill="#FFDA54"/>
<path d="M65.3846 30.834H53.8461V42.3724H65.3846V30.834Z" fill="#FFDA54"/>
<path d="M73.0769 30.834H61.5384V42.3724H73.0769V30.834Z" fill="#FFDA54"/>
<path d="M80.7694 30.834H69.231V42.3724H80.7694V30.834Z" fill="#FFDA54"/>
<path d="M88.4614 30.834H76.9229V42.3724H88.4614V30.834Z" fill="#3D3431"/>
<path d="M96.1539 30.834H84.6155V42.3724H96.1539V30.834Z" fill="#3D3431"/>
<path d="M103.846 30.834H92.3077V42.3724H103.846V30.834Z" fill="#3D3431"/>
<path d="M111.538 30.834H100V42.3724H111.538V30.834Z" fill="#AF1818"/>
<path d="M119.231 30.834H107.692V42.3724H119.231V30.834Z" fill="#AF1818"/>
<path d="M126.923 30.834H115.385V42.3724H126.923V30.834Z" fill="#AF1818"/>
<path d="M134.615 30.834H123.077V42.3724H134.615V30.834Z" fill="#AF1818"/>
<path d="M142.308 30.834H130.769V42.3724H142.308V30.834Z" fill="#AF1818"/>
<path d="M150 30.834H138.462V42.3724H150V30.834Z" fill="#AF1818"/>
<path d="M157.692 30.834H146.154V42.3724H157.692V30.834Z" fill="#3D3431"/>
<path d="M165.385 30.834H153.846V42.3724H165.385V30.834Z" fill="#FFDA54"/>
<path d="M173.077 30.834H161.538V42.3724H173.077V30.834Z" fill="#FFDA54"/>
<path d="M180.769 30.834H169.231V42.3724H180.769V30.834Z" fill="#FFDA54"/>
<path d="M188.462 30.834H176.923V42.3724H188.462V30.834Z" fill="#FFDA54"/>
<path d="M196.154 30.834H184.615V42.3724H196.154V30.834Z" fill="#FFDA54"/>
<path d="M203.846 30.834H192.308V42.3724H203.846V30.834Z" fill="#FFDA54"/>
<path d="M211.538 30.834H200V42.3724H211.538V30.834Z" fill="#FFDA54"/>
<path d="M219.231 30.834H207.692V42.3724H219.231V30.834Z" fill="#FFDA54"/>
<path d="M226.923 30.834H215.385V42.3724H226.923V30.834Z" fill="#FFDA54"/>
<path d="M234.615 30.834H223.077V42.3724H234.615V30.834Z" fill="#FFDA54"/>
<path d="M242.308 30.834H230.769V42.3724H242.308V30.834Z" fill="#FFDA54"/>
<path d="M250 30.834H238.462V42.3724H250V30.834Z" fill="#FFDA54"/>
<path d="M11.5385 38.5264H0V50.0648H11.5385V38.5264Z" fill="#FFDA54"/>
<path d="M19.2307 38.5264H7.69226V50.0648H19.2307V38.5264Z" fill="#FFDA54"/>
<path d="M26.923 38.5264H15.3845V50.0648H26.923V38.5264Z" fill="#FFDA54"/>
<path d="M34.6155 38.5264H23.0771V50.0648H34.6155V38.5264Z" fill="#FFDA54"/>
<path d="M42.3075 38.5264H30.769V50.0648H42.3075V38.5264Z" fill="#FFDA54"/>
<path d="M50.0001 38.5264H38.4616V50.0648H50.0001V38.5264Z" fill="#FFDA54"/>
<path d="M57.6923 38.5264H46.1539V50.0648H57.6923V38.5264Z" fill="#FFDA54"/>
<path d="M65.3846 38.5264H53.8461V50.0648H65.3846V38.5264Z" fill="#FFDA54"/>
<path d="M73.0769 38.5264H61.5384V50.0648H73.0769V38.5264Z" fill="#3D3431"/>
<path d="M80.7694 38.5264H69.231V50.0648H80.7694V38.5264Z" fill="#3D3431"/>
<path d="M88.4614 38.5264H76.9229V50.0648H88.4614V38.5264Z" fill="#3D3431"/>
<path d="M96.1539 38.5264H84.6155V50.0648H96.1539V38.5264Z" fill="#AF1818"/>
<path d="M103.846 38.5264H92.3077V50.0648H103.846V38.5264Z" fill="#AF1818"/>
<path d="M111.538 38.5264H100V50.0648H111.538V38.5264Z" fill="#AF1818"/>
<path d="M119.231 38.5264H107.692V50.0648H119.231V38.5264Z" fill="#AF1818"/>
<path d="M126.923 38.5264H115.385V50.0648H126.923V38.5264Z" fill="#AF1818"/>
<path d="M134.615 38.5264H123.077V50.0648H134.615V38.5264Z" fill="#AF1818"/>
<path d="M142.308 38.5264H130.769V50.0648H142.308V38.5264Z" fill="#AF1818"/>
<path d="M150 38.5264H138.462V50.0648H150V38.5264Z" fill="#AF1818"/>
<path d="M157.692 38.5264H146.154V50.0648H157.692V38.5264Z" fill="#3D3431"/>
<path d="M165.385 38.5264H153.846V50.0648H165.385V38.5264Z" fill="#FFDA54"/>
<path d="M173.077 38.5264H161.538V50.0648H173.077V38.5264Z" fill="#FFDA54"/>
<path d="M180.769 38.5264H169.231V50.0648H180.769V38.5264Z" fill="#FFDA54"/>
<path d="M188.462 38.5264H176.923V50.0648H188.462V38.5264Z" fill="#FFDA54"/>
<path d="M196.154 38.5264H184.615V50.0648H196.154V38.5264Z" fill="#FFDA54"/>
<path d="M203.846 38.5264H192.308V50.0648H203.846V38.5264Z" fill="#FFDA54"/>
<path d="M211.538 38.5264H200V50.0648H211.538V38.5264Z" fill="#FFDA54"/>
<path d="M219.231 38.5264H207.692V50.0648H219.231V38.5264Z" fill="#FFDA54"/>
<path d="M226.923 38.5264H215.385V50.0648H226.923V38.5264Z" fill="#FFDA54"/>
<path d="M234.615 38.5264H223.077V50.0648H234.615V38.5264Z" fill="#FFDA54"/>
<path d="M242.308 38.5264H230.769V50.0648H242.308V38.5264Z" fill="#FFDA54"/>
<path d="M250 38.5264H238.462V50.0648H250V38.5264Z" fill="#FFDA54"/>
<path d="M11.5385 46.2188H0V57.7572H11.5385V46.2188Z" fill="#FFDA54"/>
<path d="M19.2307 46.2188H7.69226V57.7572H19.2307V46.2188Z" fill="#FFDA54"/>
<path d="M26.923 46.2188H15.3845V57.7572H26.923V46.2188Z" fill="#FFDA54"/>
<path d="M34.6155 46.2188H23.0771V57.7572H34.6155V46.2188Z" fill="#FFDA54"/>
<path d="M42.3075 46.2188H30.769V57.7572H42.3075V46.2188Z" fill="#FFDA54"/>
<path d="M50.0001 46.2188H38.4616V57.7572H50.0001V46.2188Z" fill="#FFDA54"/>
<path d="M57.6923 46.2188H46.1539V57.7572H57.6923V46.2188Z" fill="#FFDA54"/>
<path d="M65.3846 46.2188H53.8461V57.7572H65.3846V46.2188Z" fill="#3D3431"/>
<path d="M73.0769 46.2188H61.5384V57.7572H73.0769V46.2188Z" fill="#3D3431"/>
<path d="M80.7694 46.2188H69.231V57.7572H80.7694V46.2188Z" fill="#AF1818"/>
<path d="M88.4614 46.2188H76.9229V57.7572H88.4614V46.2188Z" fill="#AF1818"/>
<path d="M96.1539 46.2188H84.6155V57.7572H96.1539V46.2188Z" fill="#AF1818"/>
<path d="M103.846 46.2188H92.3077V57.7572H103.846V46.2188Z" fill="#AF1818"/>
<path d="M111.538 46.2188H100V57.7572H111.538V46.2188Z" fill="#AF1818"/>
<path d="M119.231 46.2188H107.692V57.7572H119.231V46.2188Z" fill="#3D3431"/>
<path d="M126.923 46.2188H115.385V57.7572H126.923V46.2188Z" fill="#3D3431"/>
<path d="M134.615 46.2188H123.077V57.7572H134.615V46.2188Z" fill="#3D3431"/>
<path d="M142.308 46.2188H130.769V57.7572H142.308V46.2188Z" fill="#3D3431"/>
<path d="M150 46.2188H138.462V57.7572H150V46.2188Z" fill="#3D3431"/>
<path d="M157.692 46.2188H146.154V57.7572H157.692V46.2188Z" fill="#3D3431"/>
<path d="M165.385 46.2188H153.846V57.7572H165.385V46.2188Z" fill="#3D3431"/>
<path d="M173.077 46.2188H161.538V57.7572H173.077V46.2188Z" fill="#FFDA54"/>
<path d="M180.769 46.2188H169.231V57.7572H180.769V46.2188Z" fill="#FFDA54"/>
<path d="M188.462 46.2188H176.923V57.7572H188.462V46.2188Z" fill="#FFDA54"/>
<path d="M196.154 46.2188H184.615V57.7572H196.154V46.2188Z" fill="#FFDA54"/>
<path d="M203.846 46.2188H192.308V57.7572H203.846V46.2188Z" fill="#FFDA54"/>
<path d="M211.538 46.2188H200V57.7572H211.538V46.2188Z" fill="#FFDA54"/>
<path d="M219.231 46.2188H207.692V57.7572H219.231V46.2188Z" fill="#FFDA54"/>
<path d="M226.923 46.2188H215.385V57.7572H226.923V46.2188Z" fill="#FFDA54"/>
<path d="M234.615 46.2188H223.077V57.7572H234.615V46.2188Z" fill="#FFDA54"/>
<path d="M242.308 46.2188H230.769V57.7572H242.308V46.2188Z" fill="#FFDA54"/>
<path d="M250 46.2188H238.462V57.7572H250V46.2188Z" fill="#FFDA54"/>
<path d="M11.5385 53.9102H0V65.4486H11.5385V53.9102Z" fill="#FFDA54"/>
<path d="M19.2307 53.9102H7.69226V65.4486H19.2307V53.9102Z" fill="#FFDA54"/>
<path d="M26.923 53.9102H15.3845V65.4486H26.923V53.9102Z" fill="#FFDA54"/>
<path d="M34.6155 53.9102H23.0771V65.4486H34.6155V53.9102Z" fill="#FFDA54"/>
<path d="M42.3075 53.9102H30.769V65.4486H42.3075V53.9102Z" fill="#FFDA54"/>
<path d="M50.0001 53.9102H38.4616V65.4486H50.0001V53.9102Z" fill="#FFDA54"/>
<path d="M57.6923 53.9102H46.1539V65.4486H57.6923V53.9102Z" fill="#3D3431"/>
<path d="M65.3846 53.9102H53.8461V65.4486H65.3846V53.9102Z" fill="#3D3431"/>
<path d="M73.0769 53.9102H61.5384V65.4486H73.0769V53.9102Z" fill="#AF1818"/>
<path d="M80.7694 53.9102H69.231V65.4486H80.7694V53.9102Z" fill="#AF1818"/>
<path d="M88.4614 53.9102H76.9229V65.4486H88.4614V53.9102Z" fill="#AF1818"/>
<path d="M96.1539 53.9102H84.6155V65.4486H96.1539V53.9102Z" fill="#3D3431"/>
<path d="M103.846 53.9102H92.3077V65.4486H103.846V53.9102Z" fill="#3D3431"/>
<path d="M111.538 53.9102H100V65.4486H111.538V53.9102Z" fill="#3D3431"/>
<path d="M119.231 53.9102H107.692V65.4486H119.231V53.9102Z" fill="#3D3431"/>
<path d="M126.923 53.9102H115.385V65.4486H126.923V53.9102Z" fill="#FEB964"/>
<path d="M134.615 53.9102H123.077V65.4486H134.615V53.9102Z" fill="#FEB964"/>
<path d="M142.308 53.9102H130.769V65.4486H142.308V53.9102Z" fill="#FFDA54"/>
<path d="M150 53.9102H138.462V65.4486H150V53.9102Z" fill="#FFDA54"/>
<path d="M157.692 53.9102H146.154V65.4486H157.692V53.9102Z" fill="#FFDA54"/>
<path d="M165.385 53.9102H153.846V65.4486H165.385V53.9102Z" fill="#3D3431"/>
<path d="M173.077 53.9102H161.538V65.4486H173.077V53.9102Z" fill="#3D3431"/>
<path d="M180.769 53.9102H169.231V65.4486H180.769V53.9102Z" fill="#FFDA54"/>
<path d="M188.462 53.9102H176.923V65.4486H188.462V53.9102Z" fill="#FFDA54"/>
<path d="M196.154 53.9102H184.615V65.4486H196.154V53.9102Z" fill="#FFDA54"/>
<path d="M203.846 53.9102H192.308V65.4486H203.846V53.9102Z" fill="#FFDA54"/>
<path d="M211.538 53.9102H200V65.4486H211.538V53.9102Z" fill="#FFDA54"/>
<path d="M219.231 53.9102H207.692V65.4486H219.231V53.9102Z" fill="#FFDA54"/>
<path d="M226.923 53.9102H215.385V65.4486H226.923V53.9102Z" fill="#FFDA54"/>
<path d="M234.615 53.9102H223.077V65.4486H234.615V53.9102Z" fill="#FFDA54"/>
<path d="M242.308 53.9102H230.769V65.4486H242.308V53.9102Z" fill="#FFDA54"/>
<path d="M250 53.9102H238.462V65.4486H250V53.9102Z" fill="#FFDA54"/>
<path d="M11.5385 61.6025H0V73.141H11.5385V61.6025Z" fill="#FFDA54"/>
<path d="M19.2307 61.6025H7.69226V73.141H19.2307V61.6025Z" fill="#FFDA54"/>
<path d="M26.923 61.6025H15.3845V73.141H26.923V61.6025Z" fill="#FFDA54"/>
<path d="M34.6155 61.6025H23.0771V73.141H34.6155V61.6025Z" fill="#FFDA54"/>
<path d="M42.3075 61.6025H30.769V73.141H42.3075V61.6025Z" fill="#FFDA54"/>
<path d="M50.0001 61.6025H38.4616V73.141H50.0001V61.6025Z" fill="#3D3431"/>
<path d="M57.6923 61.6025H46.1539V73.141H57.6923V61.6025Z" fill="#3D3431"/>
<path d="M65.3846 61.6025H53.8461V73.141H65.3846V61.6025Z" fill="#AF1818"/>
<path d="M73.0769 61.6025H61.5384V73.141H73.0769V61.6025Z" fill="#AF1818"/>
<path d="M80.7694 61.6025H69.231V73.141H80.7694V61.6025Z" fill="#AF1818"/>
<path d="M88.4614 61.6025H76.9229V73.141H88.4614V61.6025Z" fill="#3D3431"/>
<path d="M96.1539 61.6025H84.6155V73.141H96.1539V61.6025Z" fill="#FEB964"/>
<path d="M103.846 61.6025H92.3077V73.141H103.846V61.6025Z" fill="#FEB964"/>
<path d="M111.538 61.6025H100V73.141H111.538V61.6025Z" fill="#FEB964"/>
<path d="M119.231 61.6025H107.692V73.141H119.231V61.6025Z" fill="#FEB964"/>
<path d="M126.923 61.6025H115.385V73.141H126.923V61.6025Z" fill="#FEB964"/>
<path d="M134.615 61.6025H123.077V73.141H134.615V61.6025Z" fill="#FEB964"/>
<path d="M142.308 61.6025H130.769V73.141H142.308V61.6025Z" fill="#FFDA54"/>
<path d="M150 61.6025H138.462V73.141H150V61.6025Z" fill="#FFDA54"/>
<path d="M157.692 61.6025H146.154V73.141H157.692V61.6025Z" fill="#FFDA54"/>
<path d="M165.385 61.6025H153.846V73.141H165.385V61.6025Z" fill="#FFDA54"/>
<path d="M173.077 61.6025H161.538V73.141H173.077V61.6025Z" fill="#3D3431"/>
<path d="M180.769 61.6025H169.231V73.141H180.769V61.6025Z" fill="#FFDA54"/>
<path d="M188.462 61.6025H176.923V73.141H188.462V61.6025Z" fill="#FFDA54"/>
<path d="M196.154 61.6025H184.615V73.141H196.154V61.6025Z" fill="#FFDA54"/>
<path d="M203.846 61.6025H192.308V73.141H203.846V61.6025Z" fill="#FFDA54"/>
<path d="M211.538 61.6025H200V73.141H211.538V61.6025Z" fill="#FFDA54"/>
<path d="M219.231 61.6025H207.692V73.141H219.231V61.6025Z" fill="#FFDA54"/>
<path d="M226.923 61.6025H215.385V73.141H226.923V61.6025Z" fill="#FFDA54"/>
<path d="M234.615 61.6025H223.077V73.141H234.615V61.6025Z" fill="#FFDA54"/>
<path d="M242.308 61.6025H230.769V73.141H242.308V61.6025Z" fill="#FFDA54"/>
<path d="M250 61.6025H238.462V73.141H250V61.6025Z" fill="#FFDA54"/>
<path d="M11.5385 69.2949H0V80.8334H11.5385V69.2949Z" fill="#FFDA54"/>
<path d="M19.2307 69.2949H7.69226V80.8334H19.2307V69.2949Z" fill="#FFDA54"/>
<path d="M26.923 69.2949H15.3845V80.8334H26.923V69.2949Z" fill="#FFDA54"/>
<path d="M34.6155 69.2949H23.0771V80.8334H34.6155V69.2949Z" fill="#3D3431"/>
<path d="M42.3075 69.2949H30.769V80.8334H42.3075V69.2949Z" fill="#3D3431"/>
<path d="M50.0001 69.2949H38.4616V80.8334H50.0001V69.2949Z" fill="#3D3431"/>
<path d="M57.6923 69.2949H46.1539V80.8334H57.6923V69.2949Z" fill="#AF1818"/>
<path d="M65.3846 69.2949H53.8461V80.8334H65.3846V69.2949Z" fill="#AF1818"/>
<path d="M73.0769 69.2949H61.5384V80.8334H73.0769V69.2949Z" fill="#3D3431"/>
<path d="M80.7694 69.2949H69.231V80.8334H80.7694V69.2949Z" fill="#3D3431"/>
<path d="M88.4614 69.2949H76.9229V80.8334H88.4614V69.2949Z" fill="#3D3431"/>
<path d="M96.1539 69.2949H84.6155V80.8334H96.1539V69.2949Z" fill="#FEB964"/>
<path d="M103.846 69.2949H92.3077V80.8334H103.846V69.2949Z" fill="#FEB964"/>
<path d="M111.538 69.2949H100V80.8334H111.538V69.2949Z" fill="#FEB964"/>
<path d="M119.231 69.2949H107.692V80.8334H119.231V69.2949Z" fill="#FFDA54"/>
<path d="M126.923 69.2949H115.385V80.8334H126.923V69.2949Z" fill="#FEB964"/>
<path d="M134.615 69.2949H123.077V80.8334H134.615V69.2949Z" fill="#FEB964"/>
<path d="M142.308 69.2949H130.769V80.8334H142.308V69.2949Z" fill="#FEB964"/>
<path d="M150 69.2949H138.462V80.8334H150V69.2949Z" fill="#FEB964"/>
<path d="M157.692 69.2949H146.154V80.8334H157.692V69.2949Z" fill="#FFDA54"/>
<path d="M165.385 69.2949H153.846V80.8334H165.385V69.2949Z" fill="#FEB964"/>
<path d="M173.077 69.2949H161.538V80.8334H173.077V69.2949Z" fill="#3D3431"/>
<path d="M180.769 69.2949H169.231V80.8334H180.769V69.2949Z" fill="#FFDA54"/>
<path d="M188.462 69.2949H176.923V80.8334H188.462V69.2949Z" fill="#FFDA54"/>
<path d="M196.154 69.2949H184.615V80.8334H196.154V69.2949Z" fill="#FFDA54"/>
<path d="M203.846 69.2949H192.308V80.8334H203.846V69.2949Z" fill="#FFDA54"/>
<path d="M211.538 69.2949H200V80.8334H211.538V69.2949Z" fill="#FFDA54"/>
<path d="M219.231 69.2949H207.692V80.8334H219.231V69.2949Z" fill="#FFDA54"/>
<path d="M226.923 69.2949H215.385V80.8334H226.923V69.2949Z" fill="#FFDA54"/>
<path d="M234.615 69.2949H223.077V80.8334H234.615V69.2949Z" fill="#FFDA54"/>
<path d="M242.308 69.2949H230.769V80.8334H242.308V69.2949Z" fill="#FFDA54"/>
<path d="M250 69.2949H238.462V80.8334H250V69.2949Z" fill="#FFDA54"/>
<path d="M11.5385 76.9873H0V88.5258H11.5385V76.9873Z" fill="#FFDA54"/>
<path d="M19.2307 76.9873H7.69226V88.5258H19.2307V76.9873Z" fill="#FFDA54"/>
<path d="M26.923 76.9873H15.3845V88.5258H26.923V76.9873Z" fill="#FFDA54"/>
<path d="M34.6155 76.9873H23.0771V88.5258H34.6155V76.9873Z" fill="#3D3431"/>
<path d="M42.3075 76.9873H30.769V88.5258H42.3075V76.9873Z" fill="#AF1818"/>
<path d="M50.0001 76.9873H38.4616V88.5258H50.0001V76.9873Z" fill="#AF1818"/>
<path d="M57.6923 76.9873H46.1539V88.5258H57.6923V76.9873Z" fill="#AF1818"/>
<path d="M65.3846 76.9873H53.8461V88.5258H65.3846V76.9873Z" fill="#AF1818"/>
<path d="M73.0769 76.9873H61.5384V88.5258H73.0769V76.9873Z" fill="#3D3431"/>
<path d="M80.7694 76.9873H69.231V88.5258H80.7694V76.9873Z" fill="#FEB964"/>
<path d="M88.4614 76.9873H76.9229V88.5258H88.4614V76.9873Z" fill="#FEB964"/>
<path d="M96.1539 76.9873H84.6155V88.5258H96.1539V76.9873Z" fill="#FEB964"/>
<path d="M103.846 76.9873H92.3077V88.5258H103.846V76.9873Z" fill="#FFDA54"/>
<path d="M111.538 76.9873H100V88.5258H111.538V76.9873Z" fill="#FFDA54"/>
<path d="M119.231 76.9873H107.692V88.5258H119.231V76.9873Z" fill="#FEB964"/>
<path d="M126.923 76.9873H115.385V88.5258H126.923V76.9873Z" fill="#FEB964"/>
<path d="M134.615 76.9873H123.077V88.5258H134.615V76.9873Z" fill="#FEB964"/>
<path d="M142.308 76.9873H130.769V88.5258H142.308V76.9873Z" fill="#FEB964"/>
<path d="M150 76.9873H138.462V88.5258H150V76.9873Z" fill="#FEB964"/>
<path d="M157.692 76.9873H146.154V88.5258H157.692V76.9873Z" fill="#FEB964"/>
<path d="M165.385 76.9873H153.846V88.5258H165.385V76.9873Z" fill="#FEB964"/>
<path d="M173.077 76.9873H161.538V88.5258H173.077V76.9873Z" fill="#3D3431"/>
<path d="M180.769 76.9873H169.231V88.5258H180.769V76.9873Z" fill="#3D3431"/>
<path d="M188.462 76.9873H176.923V88.5258H188.462V76.9873Z" fill="#FFDA54"/>
<path d="M196.154 76.9873H184.615V88.5258H196.154V76.9873Z" fill="#FFDA54"/>
<path d="M203.846 76.9873H192.308V88.5258H203.846V76.9873Z" fill="#FFDA54"/>
<path d="M211.538 76.9873H200V88.5258H211.538V76.9873Z" fill="#FFDA54"/>
<path d="M219.231 76.9873H207.692V88.5258H219.231V76.9873Z" fill="#FFDA54"/>
<path d="M226.923 76.9873H215.385V88.5258H226.923V76.9873Z" fill="#FFDA54"/>
<path d="M234.615 76.9873H223.077V88.5258H234.615V76.9873Z" fill="#FFDA54"/>
<path d="M242.308 76.9873H230.769V88.5258H242.308V76.9873Z" fill="#FFDA54"/>
<path d="M250 76.9873H238.462V88.5258H250V76.9873Z" fill="#FFDA54"/>
<path d="M11.5385 84.6797H0V96.2181H11.5385V84.6797Z" fill="#FFDA54"/>
<path d="M19.2307 84.6797H7.69226V96.2181H19.2307V84.6797Z" fill="#FFDA54"/>
<path d="M26.923 84.6797H15.3845V96.2181H26.923V84.6797Z" fill="#FFDA54"/>
<path d="M34.6155 84.6797H23.0771V96.2181H34.6155V84.6797Z" fill="#3D3431"/>
<path d="M42.3075 84.6797H30.769V96.2181H42.3075V84.6797Z" fill="#3D3431"/>
<path d="M50.0001 84.6797H38.4616V96.2181H50.0001V84.6797Z" fill="#AF1818"/>
<path d="M57.6923 84.6797H46.1539V96.2181H57.6923V84.6797Z" fill="#AF1818"/>
<path d="M65.3846 84.6797H53.8461V96.2181H65.3846V84.6797Z" fill="#3D3431"/>
<path d="M73.0769 84.6797H61.5384V96.2181H73.0769V84.6797Z" fill="#3D3431"/>
<path d="M80.7694 84.6797H69.231V96.2181H80.7694V84.6797Z" fill="#FEB964"/>
<path d="M88.4614 84.6797H76.9229V96.2181H88.4614V84.6797Z" fill="#FEB964"/>
<path d="M96.1539 84.6797H84.6155V96.2181H96.1539V84.6797Z" fill="#FEB964"/>
<path d="M103.846 84.6797H92.3077V96.2181H103.846V84.6797Z" fill="#FEB964"/>
<path d="M111.538 84.6797H100V96.2181H111.538V84.6797Z" fill="#FFDA54"/>
<path d="M119.231 84.6797H107.692V96.2181H119.231V84.6797Z" fill="#FFDA54"/>
<path d="M126.923 84.6797H115.385V96.2181H126.923V84.6797Z" fill="#FFDA54"/>
<path d="M134.615 84.6797H123.077V96.2181H134.615V84.6797Z" fill="#FEB964"/>
<path d="M142.308 84.6797H130.769V96.2181H142.308V84.6797Z" fill="#FEB964"/>
<path d="M150 84.6797H138.462V96.2181H150V84.6797Z" fill="#FEB964"/>
<path d="M157.692 84.6797H146.154V96.2181H157.692V84.6797Z" fill="#FEB964"/>
<path d="M165.385 84.6797H153.846V96.2181H165.385V84.6797Z" fill="#FEB964"/>
<path d="M173.077 84.6797H161.538V96.2181H173.077V84.6797Z" fill="#FEB964"/>
<path d="M180.769 84.6797H169.231V96.2181H180.769V84.6797Z" fill="#3D3431"/>
<path d="M188.462 84.6797H176.923V96.2181H188.462V84.6797Z" fill="#FFDA54"/>
<path d="M196.154 84.6797H184.615V96.2181H196.154V84.6797Z" fill="#FFDA54"/>
<path d="M203.846 84.6797H192.308V96.2181H203.846V84.6797Z" fill="#FFDA54"/>
<path d="M211.538 84.6797H200V96.2181H211.538V84.6797Z" fill="#FFDA54"/>
<path d="M219.231 84.6797H207.692V96.2181H219.231V84.6797Z" fill="#FFDA54"/>
<path d="M226.923 84.6797H215.385V96.2181H226.923V84.6797Z" fill="#FFDA54"/>
<path d="M234.615 84.6797H223.077V96.2181H234.615V84.6797Z" fill="#FFDA54"/>
<path d="M242.308 84.6797H230.769V96.2181H242.308V84.6797Z" fill="#FFDA54"/>
<path d="M250 84.6797H238.462V96.2181H250V84.6797Z" fill="#FFDA54"/>
<path d="M11.5385 92.3721H0V103.911H11.5385V92.3721Z" fill="#FFDA54"/>
<path d="M19.2307 92.3721H7.69226V103.911H19.2307V92.3721Z" fill="#FFDA54"/>
<path d="M26.923 92.3721H15.3845V103.911H26.923V92.3721Z" fill="#FFDA54"/>
<path d="M34.6155 92.3721H23.0771V103.911H34.6155V92.3721Z" fill="#FFDA54"/>
<path d="M42.3075 92.3721H30.769V103.911H42.3075V92.3721Z" fill="#3D3431"/>
<path d="M50.0001 92.3721H38.4616V103.911H50.0001V92.3721Z" fill="#3D3431"/>
<path d="M57.6923 92.3721H46.1539V103.911H57.6923V92.3721Z" fill="#3D3431"/>
<path d="M65.3846 92.3721H53.8461V103.911H65.3846V92.3721Z" fill="#3D3431"/>
<path d="M73.0769 92.3721H61.5384V103.911H73.0769V92.3721Z" fill="#FEB964"/>
<path d="M80.7694 92.3721H69.231V103.911H80.7694V92.3721Z" fill="#FEB964"/>
<path d="M88.4614 92.3721H76.9229V103.911H88.4614V92.3721Z" fill="#FEB964"/>
<path d="M96.1539 92.3721H84.6155V103.911H96.1539V92.3721Z" fill="#FEB964"/>
<path d="M103.846 92.3721H92.3077V103.911H103.846V92.3721Z" fill="#FEB964"/>
<path d="M111.538 92.3721H100V103.911H111.538V92.3721Z" fill="#FEB964"/>
<path d="M119.231 92.3721H107.692V103.911H119.231V92.3721Z" fill="#FFDA54"/>
<path d="M126.923 92.3721H115.385V103.911H126.923V92.3721Z" fill="#FFDA54"/>
<path d="M134.615 92.3721H123.077V103.911H134.615V92.3721Z" fill="#FEB964"/>
<path d="M142.308 92.3721H130.769V103.911H142.308V92.3721Z" fill="#FEB964"/>
<path d="M150 92.3721H138.462V103.911H150V92.3721Z" fill="#FEB964"/>
<path d="M157.692 92.3721H146.154V103.911H157.692V92.3721Z" fill="#FFDA54"/>
<path d="M165.385 92.3721H153.846V103.911H165.385V92.3721Z" fill="#FFDA54"/>
<path d="M173.077 92.3721H161.538V103.911H173.077V92.3721Z" fill="#FFDA54"/>
<path d="M180.769 92.3721H169.231V103.911H180.769V92.3721Z" fill="#3D3431"/>
<path d="M188.462 92.3721H176.923V103.911H188.462V92.3721Z" fill="#FFDA54"/>
<path d="M196.154 92.3721H184.615V103.911H196.154V92.3721Z" fill="#FFDA54"/>
<path d="M203.846 92.3721H192.308V103.911H203.846V92.3721Z" fill="#FFDA54"/>
<path d="M211.538 92.3721H200V103.911H211.538V92.3721Z" fill="#FFDA54"/>
<path d="M219.231 92.3721H207.692V103.911H219.231V92.3721Z" fill="#FFDA54"/>
<path d="M226.923 92.3721H215.385V103.911H226.923V92.3721Z" fill="#FFDA54"/>
<path d="M234.615 92.3721H223.077V103.911H234.615V92.3721Z" fill="#FFDA54"/>
<path d="M242.308 92.3721H230.769V103.911H242.308V92.3721Z" fill="#FFDA54"/>
<path d="M250 92.3721H238.462V103.911H250V92.3721Z" fill="#FFDA54"/>
<path d="M11.5385 100.064H0V111.603H11.5385V100.064Z" fill="#FFDA54"/>
<path d="M19.2307 100.064H7.69226V111.603H19.2307V100.064Z" fill="#FFDA54"/>
<path d="M26.923 100.064H15.3845V111.603H26.923V100.064Z" fill="#FFDA54"/>
<path d="M34.6155 100.064H23.0771V111.603H34.6155V100.064Z" fill="#FFDA54"/>
<path d="M42.3075 100.064H30.769V111.603H42.3075V100.064Z" fill="#FFDA54"/>
<path d="M50.0001 100.064H38.4616V111.603H50.0001V100.064Z" fill="#FFDA54"/>
<path d="M57.6923 100.064H46.1539V111.603H57.6923V100.064Z" fill="#3D3431"/>
<path d="M65.3846 100.064H53.8461V111.603H65.3846V100.064Z" fill="#3D3431"/>
<path d="M73.0769 100.064H61.5384V111.603H73.0769V100.064Z" fill="#3D3431"/>
<path d="M80.7694 100.064H69.231V111.603H80.7694V100.064Z" fill="#3D3431"/>
<path d="M88.4614 100.064H76.9229V111.603H88.4614V100.064Z" fill="#FEB964"/>
<path d="M96.1539 100.064H84.6155V111.603H96.1539V100.064Z" fill="#FFDA54"/>
<path d="M103.846 100.064H92.3077V111.603H103.846V100.064Z" fill="#FEB964"/>
<path d="M111.538 100.064H100V111.603H111.538V100.064Z" fill="#FEB964"/>
<path d="M119.231 100.064H107.692V111.603H119.231V100.064Z" fill="#FEB964"/>
<path d="M126.923 100.064H115.385V111.603H126.923V100.064Z" fill="#FEB964"/>
<path d="M134.615 100.064H123.077V111.603H134.615V100.064Z" fill="#FEB964"/>
<path d="M142.308 100.064H130.769V111.603H142.308V100.064Z" fill="#FEB964"/>
<path d="M150 100.064H138.462V111.603H150V100.064Z" fill="#FEB964"/>
<path d="M157.692 100.064H146.154V111.603H157.692V100.064Z" fill="#FFDA54"/>
<path d="M165.385 100.064H153.846V111.603H165.385V100.064Z" fill="#FFDA54"/>
<path d="M173.077 100.064H161.538V111.603H173.077V100.064Z" fill="#FFDA54"/>
<path d="M180.769 100.064H169.231V111.603H180.769V100.064Z" fill="#3D3431"/>
<path d="M188.462 100.064H176.923V111.603H188.462V100.064Z" fill="#FFDA54"/>
<path d="M196.154 100.064H184.615V111.603H196.154V100.064Z" fill="#FFDA54"/>
<path d="M203.846 100.064H192.308V111.603H203.846V100.064Z" fill="#FFDA54"/>
<path d="M211.538 100.064H200V111.603H211.538V100.064Z" fill="#FFDA54"/>
<path d="M219.231 100.064H207.692V111.603H219.231V100.064Z" fill="#FFDA54"/>
<path d="M226.923 100.064H215.385V111.603H226.923V100.064Z" fill="#FFDA54"/>
<path d="M234.615 100.064H223.077V111.603H234.615V100.064Z" fill="#FFDA54"/>
<path d="M242.308 100.064H230.769V111.603H242.308V100.064Z" fill="#FFDA54"/>
<path d="M250 100.064H238.462V111.603H250V100.064Z" fill="#FFDA54"/>
<path d="M11.5385 107.757H0V119.295H11.5385V107.757Z" fill="#FFDA54"/>
<path d="M19.2307 107.757H7.69226V119.295H19.2307V107.757Z" fill="#FFDA54"/>
<path d="M26.923 107.757H15.3845V119.295H26.923V107.757Z" fill="#FFDA54"/>
<path d="M34.6155 107.757H23.0771V119.295H34.6155V107.757Z" fill="#FFDA54"/>
<path d="M42.3075 107.757H30.769V119.295H42.3075V107.757Z" fill="#FFDA54"/>
<path d="M50.0001 107.757H38.4616V119.295H50.0001V107.757Z" fill="#FFDA54"/>
<path d="M57.6923 107.757H46.1539V119.295H57.6923V107.757Z" fill="#FFDA54"/>
<path d="M65.3846 107.757H53.8461V119.295H65.3846V107.757Z" fill="#FFDA54"/>
<path d="M73.0769 107.757H61.5384V119.295H73.0769V107.757Z" fill="#FFDA54"/>
<path d="M80.7694 107.757H69.231V119.295H80.7694V107.757Z" fill="#3D3431"/>
<path d="M88.4614 107.757H76.9229V119.295H88.4614V107.757Z" fill="#FFDA54"/>
<path d="M96.1539 107.757H84.6155V119.295H96.1539V107.757Z" fill="#FFDA54"/>
<path d="M103.846 107.757H92.3077V119.295H103.846V107.757Z" fill="#FFDA54"/>
<path d="M111.538 107.757H100V119.295H111.538V107.757Z" fill="#FEB964"/>
<path d="M119.231 107.757H107.692V119.295H119.231V107.757Z" fill="#FEB964"/>
<path d="M126.923 107.757H115.385V119.295H126.923V107.757Z" fill="#FEB964"/>
<path d="M134.615 107.757H123.077V119.295H134.615V107.757Z" fill="#FEB964"/>
<path d="M142.308 107.757H130.769V119.295H142.308V107.757Z" fill="#FEB964"/>
<path d="M150 107.757H138.462V119.295H150V107.757Z" fill="#FEB964"/>
<path d="M157.692 107.757H146.154V119.295H157.692V107.757Z" fill="#FFDA54"/>
<path d="M165.385 107.757H153.846V119.295H165.385V107.757Z" fill="#FFDA54"/>
<path d="M173.077 107.757H161.538V119.295H173.077V107.757Z" fill="#FFDA54"/>
<path d="M180.769 107.757H169.231V119.295H180.769V107.757Z" fill="#3D3431"/>
<path d="M188.462 107.757H176.923V119.295H188.462V107.757Z" fill="#3D3431"/>
<path d="M196.154 107.757H184.615V119.295H196.154V107.757Z" fill="#FFDA54"/>
<path d="M203.846 107.757H192.308V119.295H203.846V107.757Z" fill="#FFDA54"/>
<path d="M211.538 107.757H200V119.295H211.538V107.757Z" fill="#FFDA54"/>
<path d="M219.231 107.757H207.692V119.295H219.231V107.757Z" fill="#FFDA54"/>
<path d="M226.923 107.757H215.385V119.295H226.923V107.757Z" fill="#FFDA54"/>
<path d="M234.615 107.757H223.077V119.295H234.615V107.757Z" fill="#FFDA54"/>
<path d="M242.308 107.757H230.769V119.295H242.308V107.757Z" fill="#FFDA54"/>
<path d="M250 107.757H238.462V119.295H250V107.757Z" fill="#FFDA54"/>
<path d="M11.5385 115.449H0V126.988H11.5385V115.449Z" fill="#FFDA54"/>
<path d="M19.2307 115.449H7.69226V126.988H19.2307V115.449Z" fill="#FFDA54"/>
<path d="M26.923 115.449H15.3845V126.988H26.923V115.449Z" fill="#FFDA54"/>
<path d="M34.6155 115.449H23.0771V126.988H34.6155V115.449Z" fill="#FFDA54"/>
<path d="M42.3075 115.449H30.769V126.988H42.3075V115.449Z" fill="#FFDA54"/>
<path d="M50.0001 115.449H38.4616V126.988H50.0001V115.449Z" fill="#FFDA54"/>
<path d="M57.6923 115.449H46.1539V126.988H57.6923V115.449Z" fill="#FFDA54"/>
<path d="M65.3846 115.449H53.8461V126.988H65.3846V115.449Z" fill="#FFDA54"/>
<path d="M73.0769 115.449H61.5384V126.988H73.0769V115.449Z" fill="#FFDA54"/>
<path d="M80.7694 115.449H69.231V126.988H80.7694V115.449Z" fill="#3D3431"/>
<path d="M88.4614 115.449H76.9229V126.988H88.4614V115.449Z" fill="#3D3431"/>
<path d="M96.1539 115.449H84.6155V126.988H96.1539V115.449Z" fill="#FFDA54"/>
<path d="M103.846 115.449H92.3077V126.988H103.846V115.449Z" fill="#FFDA54"/>
<path d="M111.538 115.449H100V126.988H111.538V115.449Z" fill="#FEB964"/>
<path d="M119.231 115.449H107.692V126.988H119.231V115.449Z" fill="#FEB964"/>
<path d="M126.923 115.449H115.385V126.988H126.923V115.449Z" fill="#FEB964"/>
<path d="M134.615 115.449H123.077V126.988H134.615V115.449Z" fill="#FEB964"/>
<path d="M142.308 115.449H130.769V126.988H142.308V115.449Z" fill="#FEB964"/>
<path d="M150 115.449H138.462V126.988H150V115.449Z" fill="#FEB964"/>
<path d="M157.692 115.449H146.154V126.988H157.692V115.449Z" fill="#FEB964"/>
<path d="M165.385 115.449H153.846V126.988H165.385V115.449Z" fill="#FEB964"/>
<path d="M173.077 115.449H161.538V126.988H173.077V115.449Z" fill="#FEB964"/>
<path d="M180.769 115.449H169.231V126.988H180.769V115.449Z" fill="#FEB964"/>
<path d="M188.462 115.449H176.923V126.988H188.462V115.449Z" fill="#3D3431"/>
<path d="M196.154 115.449H184.615V126.988H196.154V115.449Z" fill="#FFDA54"/>
<path d="M203.846 115.449H192.308V126.988H203.846V115.449Z" fill="#FFDA54"/>
<path d="M211.538 115.449H200V126.988H211.538V115.449Z" fill="#FFDA54"/>
<path d="M219.231 115.449H207.692V126.988H219.231V115.449Z" fill="#FFDA54"/>
<path d="M226.923 115.449H215.385V126.988H226.923V115.449Z" fill="#FFDA54"/>
<path d="M234.615 115.449H223.077V126.988H234.615V115.449Z" fill="#FFDA54"/>
<path d="M242.308 115.449H230.769V126.988H242.308V115.449Z" fill="#FFDA54"/>
<path d="M250 115.449H238.462V126.988H250V115.449Z" fill="#FFDA54"/>
<path d="M11.5385 123.142H0V134.68H11.5385V123.142Z" fill="#FFDA54"/>
<path d="M19.2307 123.142H7.69226V134.68H19.2307V123.142Z" fill="#FFDA54"/>
<path d="M26.923 123.142H15.3845V134.68H26.923V123.142Z" fill="#FFDA54"/>
<path d="M34.6155 123.142H23.0771V134.68H34.6155V123.142Z" fill="#FFDA54"/>
<path d="M42.3075 123.142H30.769V134.68H42.3075V123.142Z" fill="#FFDA54"/>
<path d="M50.0001 123.142H38.4616V134.68H50.0001V123.142Z" fill="#FFDA54"/>
<path d="M57.6923 123.142H46.1539V134.68H57.6923V123.142Z" fill="#FFDA54"/>
<path d="M65.3846 123.142H53.8461V134.68H65.3846V123.142Z" fill="#FFDA54"/>
<path d="M73.0769 123.142H61.5384V134.68H73.0769V123.142Z" fill="#FFDA54"/>
<path d="M80.7694 123.142H69.231V134.68H80.7694V123.142Z" fill="#FFDA54"/>
<path d="M88.4614 123.142H76.9229V134.68H88.4614V123.142Z" fill="#3D3431"/>
<path d="M96.1539 123.142H84.6155V134.68H96.1539V123.142Z" fill="#FEB964"/>
<path d="M103.846 123.142H92.3077V134.68H103.846V123.142Z" fill="#3D3431"/>
<path d="M111.538 123.142H100V134.68H111.538V123.142Z" fill="#FEB964"/>
<path d="M119.231 123.142H107.692V134.68H119.231V123.142Z" fill="#FEB964"/>
<path d="M126.923 123.142H115.385V134.68H126.923V123.142Z" fill="#FEB964"/>
<path d="M134.615 123.142H123.077V134.68H134.615V123.142Z" fill="#FEB964"/>
<path d="M142.308 123.142H130.769V134.68H142.308V123.142Z" fill="#FFDA54"/>
<path d="M150 123.142H138.462V134.68H150V123.142Z" fill="#FEB964"/>
<path d="M157.692 123.142H146.154V134.68H157.692V123.142Z" fill="#FEB964"/>
<path d="M165.385 123.142H153.846V134.68H165.385V123.142Z" fill="#FEB964"/>
<path d="M173.077 123.142H161.538V134.68H173.077V123.142Z" fill="#FEB964"/>
<path d="M180.769 123.142H169.231V134.68H180.769V123.142Z" fill="#FEB964"/>
<path d="M188.462 123.142H176.923V134.68H188.462V123.142Z" fill="#3D3431"/>
<path d="M196.154 123.142H184.615V134.68H196.154V123.142Z" fill="#FFDA54"/>
<path d="M203.846 123.142H192.308V134.68H203.846V123.142Z" fill="#FFDA54"/>
<path d="M211.538 123.142H200V134.68H211.538V123.142Z" fill="#FFDA54"/>
<path d="M219.231 123.142H207.692V134.68H219.231V123.142Z" fill="#FFDA54"/>
<path d="M226.923 123.142H215.385V134.68H226.923V123.142Z" fill="#FFDA54"/>
<path d="M234.615 123.142H223.077V134.68H234.615V123.142Z" fill="#FFDA54"/>
<path d="M242.308 123.142H230.769V134.68H242.308V123.142Z" fill="#FFDA54"/>
<path d="M250 123.142H238.462V134.68H250V123.142Z" fill="#FFDA54"/>
<path d="M11.5385 130.834H0V142.372H11.5385V130.834Z" fill="#FFDA54"/>
<path d="M19.2307 130.834H7.69226V142.372H19.2307V130.834Z" fill="#FFDA54"/>
<path d="M26.923 130.834H15.3845V142.372H26.923V130.834Z" fill="#FFDA54"/>
<path d="M34.6155 130.834H23.0771V142.372H34.6155V130.834Z" fill="#FFDA54"/>
<path d="M42.3075 130.834H30.769V142.372H42.3075V130.834Z" fill="#FFDA54"/>
<path d="M50.0001 130.834H38.4616V142.372H50.0001V130.834Z" fill="#FFDA54"/>
<path d="M57.6923 130.834H46.1539V142.372H57.6923V130.834Z" fill="#FFDA54"/>
<path d="M65.3846 130.834H53.8461V142.372H65.3846V130.834Z" fill="#FFDA54"/>
<path d="M73.0769 130.834H61.5384V142.372H73.0769V130.834Z" fill="#FFDA54"/>
<path d="M80.7694 130.834H69.231V142.372H80.7694V130.834Z" fill="#FFDA54"/>
<path d="M88.4614 130.834H76.9229V142.372H88.4614V130.834Z" fill="#3D3431"/>
<path d="M96.1539 130.834H84.6155V142.372H96.1539V130.834Z" fill="#FEB964"/>
<path d="M103.846 130.834H92.3077V142.372H103.846V130.834Z" fill="#3D3431"/>
<path d="M111.538 130.834H100V142.372H111.538V130.834Z" fill="#3D3431"/>
<path d="M119.231 130.834H107.692V142.372H119.231V130.834Z" fill="#3D3431"/>
<path d="M126.923 130.834H115.385V142.372H126.923V130.834Z" fill="#FEB964"/>
<path d="M134.615 130.834H123.077V142.372H134.615V130.834Z" fill="#FFDA54"/>
<path d="M142.308 130.834H130.769V142.372H142.308V130.834Z" fill="#FFDA54"/>
<path d="M150 130.834H138.462V142.372H150V130.834Z" fill="#FFDA54"/>
<path d="M157.692 130.834H146.154V142.372H157.692V130.834Z" fill="#FEB964"/>
<path d="M165.385 130.834H153.846V142.372H165.385V130.834Z" fill="#FEB964"/>
<path d="M173.077 130.834H161.538V142.372H173.077V130.834Z" fill="#FEB964"/>
<path d="M180.769 130.834H169.231V142.372H180.769V130.834Z" fill="#FFDA54"/>
<path d="M188.462 130.834H176.923V142.372H188.462V130.834Z" fill="#3D3431"/>
<path d="M196.154 130.834H184.615V142.372H196.154V130.834Z" fill="#3D3431"/>
<path d="M203.846 130.834H192.308V142.372H203.846V130.834Z" fill="#FFDA54"/>
<path d="M211.538 130.834H200V142.372H211.538V130.834Z" fill="#FFDA54"/>
<path d="M219.231 130.834H207.692V142.372H219.231V130.834Z" fill="#FFDA54"/>
<path d="M226.923 130.834H215.385V142.372H226.923V130.834Z" fill="#FFDA54"/>
<path d="M234.615 130.834H223.077V142.372H234.615V130.834Z" fill="#FFDA54"/>
<path d="M242.308 130.834H230.769V142.372H242.308V130.834Z" fill="#FFDA54"/>
<path d="M250 130.834H238.462V142.372H250V130.834Z" fill="#FFDA54"/>
<path d="M11.5385 138.526H0V150.065H11.5385V138.526Z" fill="#FFDA54"/>
<path d="M19.2307 138.526H7.69226V150.065H19.2307V138.526Z" fill="#FFDA54"/>
<path d="M26.923 138.526H15.3845V150.065H26.923V138.526Z" fill="#FFDA54"/>
<path d="M34.6155 138.526H23.0771V150.065H34.6155V138.526Z" fill="#FFDA54"/>
<path d="M42.3075 138.526H30.769V150.065H42.3075V138.526Z" fill="#FFDA54"/>
<path d="M50.0001 138.526H38.4616V150.065H50.0001V138.526Z" fill="#FFDA54"/>
<path d="M57.6923 138.526H46.1539V150.065H57.6923V138.526Z" fill="#FFDA54"/>
<path d="M65.3846 138.526H53.8461V150.065H65.3846V138.526Z" fill="#FFDA54"/>
<path d="M73.0769 138.526H61.5384V150.065H73.0769V138.526Z" fill="#FFDA54"/>
<path d="M80.7694 138.526H69.231V150.065H80.7694V138.526Z" fill="#FFDA54"/>
<path d="M88.4614 138.526H76.9229V150.065H88.4614V138.526Z" fill="#3D3431"/>
<path d="M96.1539 138.526H84.6155V150.065H96.1539V138.526Z" fill="#3D3431"/>
<path d="M103.846 138.526H92.3077V150.065H103.846V138.526Z" fill="#3D3431"/>
<path d="M111.538 138.526H100V150.065H111.538V138.526Z" fill="#FFDA54"/>
<path d="M119.231 138.526H107.692V150.065H119.231V138.526Z" fill="#3D3431"/>
<path d="M126.923 138.526H115.385V150.065H126.923V138.526Z" fill="#FEB964"/>
<path d="M134.615 138.526H123.077V150.065H134.615V138.526Z" fill="#FEB964"/>
<path d="M142.308 138.526H130.769V150.065H142.308V138.526Z" fill="#FFDA54"/>
<path d="M150 138.526H138.462V150.065H150V138.526Z" fill="#FFDA54"/>
<path d="M157.692 138.526H146.154V150.065H157.692V138.526Z" fill="#FEB964"/>
<path d="M165.385 138.526H153.846V150.065H165.385V138.526Z" fill="#FEB964"/>
<path d="M173.077 138.526H161.538V150.065H173.077V138.526Z" fill="#FFDA54"/>
<path d="M180.769 138.526H169.231V150.065H180.769V138.526Z" fill="#FFDA54"/>
<path d="M188.462 138.526H176.923V150.065H188.462V138.526Z" fill="#FFDA54"/>
<path d="M196.154 138.526H184.615V150.065H196.154V138.526Z" fill="#3D3431"/>
<path d="M203.846 138.526H192.308V150.065H203.846V138.526Z" fill="#FFDA54"/>
<path d="M211.538 138.526H200V150.065H211.538V138.526Z" fill="#FFDA54"/>
<path d="M219.231 138.526H207.692V150.065H219.231V138.526Z" fill="#FFDA54"/>
<path d="M226.923 138.526H215.385V150.065H226.923V138.526Z" fill="#FFDA54"/>
<path d="M234.615 138.526H223.077V150.065H234.615V138.526Z" fill="#FFDA54"/>
<path d="M242.308 138.526H230.769V150.065H242.308V138.526Z" fill="#FFDA54"/>
<path d="M250 138.526H238.462V150.065H250V138.526Z" fill="#FFDA54"/>
<path d="M11.5385 146.219H0V157.757H11.5385V146.219Z" fill="#FFDA54"/>
<path d="M19.2307 146.219H7.69226V157.757H19.2307V146.219Z" fill="#FFDA54"/>
<path d="M26.923 146.219H15.3845V157.757H26.923V146.219Z" fill="#FFDA54"/>
<path d="M34.6155 146.219H23.0771V157.757H34.6155V146.219Z" fill="#FFDA54"/>
<path d="M42.3075 146.219H30.769V157.757H42.3075V146.219Z" fill="#FFDA54"/>
<path d="M50.0001 146.219H38.4616V157.757H50.0001V146.219Z" fill="#FFDA54"/>
<path d="M57.6923 146.219H46.1539V157.757H57.6923V146.219Z" fill="#FFDA54"/>
<path d="M65.3846 146.219H53.8461V157.757H65.3846V146.219Z" fill="#FFDA54"/>
<path d="M73.0769 146.219H61.5384V157.757H73.0769V146.219Z" fill="#FFDA54"/>
<path d="M80.7694 146.219H69.231V157.757H80.7694V146.219Z" fill="#FFDA54"/>
<path d="M88.4614 146.219H76.9229V157.757H88.4614V146.219Z" fill="#FFDA54"/>
<path d="M96.1539 146.219H84.6155V157.757H96.1539V146.219Z" fill="#3D3431"/>
<path d="M103.846 146.219H92.3077V157.757H103.846V146.219Z" fill="#FFDA54"/>
<path d="M111.538 146.219H100V157.757H111.538V146.219Z" fill="#FFDA54"/>
<path d="M119.231 146.219H107.692V157.757H119.231V146.219Z" fill="#3D3431"/>
<path d="M126.923 146.219H115.385V157.757H126.923V146.219Z" fill="#3D3431"/>
<path d="M134.615 146.219H123.077V157.757H134.615V146.219Z" fill="#3D3431"/>
<path d="M142.308 146.219H130.769V157.757H142.308V146.219Z" fill="#3D3431"/>
<path d="M150 146.219H138.462V157.757H150V146.219Z" fill="#3D3431"/>
<path d="M157.692 146.219H146.154V157.757H157.692V146.219Z" fill="#FEB964"/>
<path d="M165.385 146.219H153.846V157.757H165.385V146.219Z" fill="#FEB964"/>
<path d="M173.077 146.219H161.538V157.757H173.077V146.219Z" fill="#FFDA54"/>
<path d="M180.769 146.219H169.231V157.757H180.769V146.219Z" fill="#FFDA54"/>
<path d="M188.462 146.219H176.923V157.757H188.462V146.219Z" fill="#FFDA54"/>
<path d="M196.154 146.219H184.615V157.757H196.154V146.219Z" fill="#3D3431"/>
<path d="M203.846 146.219H192.308V157.757H203.846V146.219Z" fill="#FFDA54"/>
<path d="M211.538 146.219H200V157.757H211.538V146.219Z" fill="#FFDA54"/>
<path d="M219.231 146.219H207.692V157.757H219.231V146.219Z" fill="#FFDA54"/>
<path d="M226.923 146.219H215.385V157.757H226.923V146.219Z" fill="#FFDA54"/>
<path d="M234.615 146.219H223.077V157.757H234.615V146.219Z" fill="#FFDA54"/>
<path d="M242.308 146.219H230.769V157.757H242.308V146.219Z" fill="#FFDA54"/>
<path d="M250 146.219H238.462V157.757H250V146.219Z" fill="#FFDA54"/>
<path d="M11.5385 153.911H0V165.45H11.5385V153.911Z" fill="#FFDA54"/>
<path d="M19.2307 153.911H7.69226V165.45H19.2307V153.911Z" fill="#FFDA54"/>
<path d="M26.923 153.911H15.3845V165.45H26.923V153.911Z" fill="#FFDA54"/>
<path d="M34.6155 153.911H23.0771V165.45H34.6155V153.911Z" fill="#FFDA54"/>
<path d="M42.3075 153.911H30.769V165.45H42.3075V153.911Z" fill="#FFDA54"/>
<path d="M50.0001 153.911H38.4616V165.45H50.0001V153.911Z" fill="#FFDA54"/>
<path d="M57.6923 153.911H46.1539V165.45H57.6923V153.911Z" fill="#FFDA54"/>
<path d="M65.3846 153.911H53.8461V165.45H65.3846V153.911Z" fill="#FFDA54"/>
<path d="M73.0769 153.911H61.5384V165.45H73.0769V153.911Z" fill="#FFDA54"/>
<path d="M80.7694 153.911H69.231V165.45H80.7694V153.911Z" fill="#FFDA54"/>
<path d="M88.4614 153.911H76.9229V165.45H88.4614V153.911Z" fill="#FFDA54"/>
<path d="M96.1539 153.911H84.6155V165.45H96.1539V153.911Z" fill="#FFDA54"/>
<path d="M103.846 153.911H92.3077V165.45H103.846V153.911Z" fill="#FFDA54"/>
<path d="M111.538 153.911H100V165.45H111.538V153.911Z" fill="#FFDA54"/>
<path d="M119.231 153.911H107.692V165.45H119.231V153.911Z" fill="#FFDA54"/>
<path d="M126.923 153.911H115.385V165.45H126.923V153.911Z" fill="#FFDA54"/>
<path d="M134.615 153.911H123.077V165.45H134.615V153.911Z" fill="#FFDA54"/>
<path d="M142.308 153.911H130.769V165.45H142.308V153.911Z" fill="#FFDA54"/>
<path d="M150 153.911H138.462V165.45H150V153.911Z" fill="#3D3431"/>
<path d="M157.692 153.911H146.154V165.45H157.692V153.911Z" fill="#FEB964"/>
<path d="M165.385 153.911H153.846V165.45H165.385V153.911Z" fill="#FEB964"/>
<path d="M173.077 153.911H161.538V165.45H173.077V153.911Z" fill="#FEB964"/>
<path d="M180.769 153.911H169.231V165.45H180.769V153.911Z" fill="#FFDA54"/>
<path d="M188.462 153.911H176.923V165.45H188.462V153.911Z" fill="#FFDA54"/>
<path d="M196.154 153.911H184.615V165.45H196.154V153.911Z" fill="#3D3431"/>
<path d="M203.846 153.911H192.308V165.45H203.846V153.911Z" fill="#3D3431"/>
<path d="M211.538 153.911H200V165.45H211.538V153.911Z" fill="#FFDA54"/>
<path d="M219.231 153.911H207.692V165.45H219.231V153.911Z" fill="#FFDA54"/>
<path d="M226.923 153.911H215.385V165.45H226.923V153.911Z" fill="#FFDA54"/>
<path d="M234.615 153.911H223.077V165.45H234.615V153.911Z" fill="#FFDA54"/>
<path d="M242.308 153.911H230.769V165.45H242.308V153.911Z" fill="#FFDA54"/>
<path d="M250 153.911H238.462V165.45H250V153.911Z" fill="#FFDA54"/>
<path d="M11.5385 161.603H0V173.141H11.5385V161.603Z" fill="#FFDA54"/>
<path d="M19.2307 161.603H7.69226V173.141H19.2307V161.603Z" fill="#FFDA54"/>
<path d="M26.923 161.603H15.3845V173.141H26.923V161.603Z" fill="#FFDA54"/>
<path d="M34.6155 161.603H23.0771V173.141H34.6155V161.603Z" fill="#FFDA54"/>
<path d="M42.3075 161.603H30.769V173.141H42.3075V161.603Z" fill="#FFDA54"/>
<path d="M50.0001 161.603H38.4616V173.141H50.0001V161.603Z" fill="#FFDA54"/>
<path d="M57.6923 161.603H46.1539V173.141H57.6923V161.603Z" fill="#FFDA54"/>
<path d="M65.3846 161.603H53.8461V173.141H65.3846V161.603Z" fill="#FFDA54"/>
<path d="M73.0769 161.603H61.5384V173.141H73.0769V161.603Z" fill="#FFDA54"/>
<path d="M80.7694 161.603H69.231V173.141H80.7694V161.603Z" fill="#FFDA54"/>
<path d="M88.4614 161.603H76.9229V173.141H88.4614V161.603Z" fill="#FFDA54"/>
<path d="M96.1539 161.603H84.6155V173.141H96.1539V161.603Z" fill="#FFDA54"/>
<path d="M103.846 161.603H92.3077V173.141H103.846V161.603Z" fill="#FFDA54"/>
<path d="M111.538 161.603H100V173.141H111.538V161.603Z" fill="#FFDA54"/>
<path d="M119.231 161.603H107.692V173.141H119.231V161.603Z" fill="#FFDA54"/>
<path d="M126.923 161.603H115.385V173.141H126.923V161.603Z" fill="#FFDA54"/>
<path d="M134.615 161.603H123.077V173.141H134.615V161.603Z" fill="#FFDA54"/>
<path d="M142.308 161.603H130.769V173.141H142.308V161.603Z" fill="#FFDA54"/>
<path d="M150 161.603H138.462V173.141H150V161.603Z" fill="#3D3431"/>
<path d="M157.692 161.603H146.154V173.141H157.692V161.603Z" fill="#FEB964"/>
<path d="M165.385 161.603H153.846V173.141H165.385V161.603Z" fill="#3D3431"/>
<path d="M173.077 161.603H161.538V173.141H173.077V161.603Z" fill="#FEB964"/>
<path d="M180.769 161.603H169.231V173.141H180.769V161.603Z" fill="#FEB964"/>
<path d="M188.462 161.603H176.923V173.141H188.462V161.603Z" fill="#FEB964"/>
<path d="M196.154 161.603H184.615V173.141H196.154V161.603Z" fill="#3D3431"/>
<path d="M203.846 161.603H192.308V173.141H203.846V161.603Z" fill="#3D3431"/>
<path d="M211.538 161.603H200V173.141H211.538V161.603Z" fill="#FFDA54"/>
<path d="M219.231 161.603H207.692V173.141H219.231V161.603Z" fill="#FFDA54"/>
<path d="M226.923 161.603H215.385V173.141H226.923V161.603Z" fill="#FFDA54"/>
<path d="M234.615 161.603H223.077V173.141H234.615V161.603Z" fill="#FFDA54"/>
<path d="M242.308 161.603H230.769V173.141H242.308V161.603Z" fill="#FFDA54"/>
<path d="M250 161.603H238.462V173.141H250V161.603Z" fill="#FFDA54"/>
<path d="M11.5385 169.295H0V180.833H11.5385V169.295Z" fill="#FFDA54"/>
<path d="M19.2307 169.295H7.69226V180.833H19.2307V169.295Z" fill="#FFDA54"/>
<path d="M26.923 169.295H15.3845V180.833H26.923V169.295Z" fill="#FFDA54"/>
<path d="M34.6155 169.295H23.0771V180.833H34.6155V169.295Z" fill="#FFDA54"/>
<path d="M42.3075 169.295H30.769V180.833H42.3075V169.295Z" fill="#FFDA54"/>
<path d="M50.0001 169.295H38.4616V180.833H50.0001V169.295Z" fill="#FFDA54"/>
<path d="M57.6923 169.295H46.1539V180.833H57.6923V169.295Z" fill="#FFDA54"/>
<path d="M65.3846 169.295H53.8461V180.833H65.3846V169.295Z" fill="#FFDA54"/>
<path d="M73.0769 169.295H61.5384V180.833H73.0769V169.295Z" fill="#FFDA54"/>
<path d="M80.7694 169.295H69.231V180.833H80.7694V169.295Z" fill="#FFDA54"/>
<path d="M88.4614 169.295H76.9229V180.833H88.4614V169.295Z" fill="#FFDA54"/>
<path d="M96.1539 169.295H84.6155V180.833H96.1539V169.295Z" fill="#FFDA54"/>
<path d="M103.846 169.295H92.3077V180.833H103.846V169.295Z" fill="#FFDA54"/>
<path d="M111.538 169.295H100V180.833H111.538V169.295Z" fill="#FFDA54"/>
<path d="M119.231 169.295H107.692V180.833H119.231V169.295Z" fill="#FFDA54"/>
<path d="M126.923 169.295H115.385V180.833H126.923V169.295Z" fill="#FFDA54"/>
<path d="M134.615 169.295H123.077V180.833H134.615V169.295Z" fill="#FFDA54"/>
<path d="M142.308 169.295H130.769V180.833H142.308V169.295Z" fill="#FFDA54"/>
<path d="M150 169.295H138.462V180.833H150V169.295Z" fill="#3D3431"/>
<path d="M157.692 169.295H146.154V180.833H157.692V169.295Z" fill="#FEB964"/>
<path d="M165.385 169.295H153.846V180.833H165.385V169.295Z" fill="#3D3431"/>
<path d="M173.077 169.295H161.538V180.833H173.077V169.295Z" fill="#3D3431"/>
<path d="M180.769 169.295H169.231V180.833H180.769V169.295Z" fill="#FEB964"/>
<path d="M188.462 169.295H176.923V180.833H188.462V169.295Z" fill="#FEB964"/>
<path d="M196.154 169.295H184.615V180.833H196.154V169.295Z" fill="#FEB964"/>
<path d="M203.846 169.295H192.308V180.833H203.846V169.295Z" fill="#3D3431"/>
<path d="M211.538 169.295H200V180.833H211.538V169.295Z" fill="#FFDA54"/>
<path d="M219.231 169.295H207.692V180.833H219.231V169.295Z" fill="#FFDA54"/>
<path d="M226.923 169.295H215.385V180.833H226.923V169.295Z" fill="#FFDA54"/>
<path d="M234.615 169.295H223.077V180.833H234.615V169.295Z" fill="#FFDA54"/>
<path d="M242.308 169.295H230.769V180.833H242.308V169.295Z" fill="#FFDA54"/>
<path d="M250 169.295H238.462V180.833H250V169.295Z" fill="#FFDA54"/>
<path d="M11.5385 176.987H0V188.526H11.5385V176.987Z" fill="#FFDA54"/>
<path d="M19.2307 176.987H7.69226V188.526H19.2307V176.987Z" fill="#FFDA54"/>
<path d="M26.923 176.987H15.3845V188.526H26.923V176.987Z" fill="#FFDA54"/>
<path d="M34.6155 176.987H23.0771V188.526H34.6155V176.987Z" fill="#FFDA54"/>
<path d="M42.3075 176.987H30.769V188.526H42.3075V176.987Z" fill="#FFDA54"/>
<path d="M50.0001 176.987H38.4616V188.526H50.0001V176.987Z" fill="#FFDA54"/>
<path d="M57.6923 176.987H46.1539V188.526H57.6923V176.987Z" fill="#FFDA54"/>
<path d="M65.3846 176.987H53.8461V188.526H65.3846V176.987Z" fill="#FFDA54"/>
<path d="M73.0769 176.987H61.5384V188.526H73.0769V176.987Z" fill="#FFDA54"/>
<path d="M80.7694 176.987H69.231V188.526H80.7694V176.987Z" fill="#FFDA54"/>
<path d="M88.4614 176.987H76.9229V188.526H88.4614V176.987Z" fill="#FFDA54"/>
<path d="M96.1539 176.987H84.6155V188.526H96.1539V176.987Z" fill="#FFDA54"/>
<path d="M103.846 176.987H92.3077V188.526H103.846V176.987Z" fill="#FFDA54"/>
<path d="M111.538 176.987H100V188.526H111.538V176.987Z" fill="#FFDA54"/>
<path d="M119.231 176.987H107.692V188.526H119.231V176.987Z" fill="#FFDA54"/>
<path d="M126.923 176.987H115.385V188.526H126.923V176.987Z" fill="#FFDA54"/>
<path d="M134.615 176.987H123.077V188.526H134.615V176.987Z" fill="#FFDA54"/>
<path d="M142.308 176.987H130.769V188.526H142.308V176.987Z" fill="#FFDA54"/>
<path d="M150 176.987H138.462V188.526H150V176.987Z" fill="#3D3431"/>
<path d="M157.692 176.987H146.154V188.526H157.692V176.987Z" fill="#FEB964"/>
<path d="M165.385 176.987H153.846V188.526H165.385V176.987Z" fill="#3D3431"/>
<path d="M173.077 176.987H161.538V188.526H173.077V176.987Z" fill="#3D3431"/>
<path d="M180.769 176.987H169.231V188.526H180.769V176.987Z" fill="#3D3431"/>
<path d="M188.462 176.987H176.923V188.526H188.462V176.987Z" fill="#FEB964"/>
<path d="M196.154 176.987H184.615V188.526H196.154V176.987Z" fill="#FEB964"/>
<path d="M203.846 176.987H192.308V188.526H203.846V176.987Z" fill="#3D3431"/>
<path d="M211.538 176.987H200V188.526H211.538V176.987Z" fill="#FFDA54"/>
<path d="M219.231 176.987H207.692V188.526H219.231V176.987Z" fill="#FFDA54"/>
<path d="M226.923 176.987H215.385V188.526H226.923V176.987Z" fill="#FFDA54"/>
<path d="M234.615 176.987H223.077V188.526H234.615V176.987Z" fill="#FFDA54"/>
<path d="M242.308 176.987H230.769V188.526H242.308V176.987Z" fill="#FFDA54"/>
<path d="M250 176.987H238.462V188.526H250V176.987Z" fill="#FFDA54"/>
<path d="M11.5385 184.68H0V196.218H11.5385V184.68Z" fill="#FFDA54"/>
<path d="M19.2307 184.68H7.69226V196.218H19.2307V184.68Z" fill="#FFDA54"/>
<path d="M26.923 184.68H15.3845V196.218H26.923V184.68Z" fill="#FFDA54"/>
<path d="M34.6155 184.68H23.0771V196.218H34.6155V184.68Z" fill="#FFDA54"/>
<path d="M42.3075 184.68H30.769V196.218H42.3075V184.68Z" fill="#FFDA54"/>
<path d="M50.0001 184.68H38.4616V196.218H50.0001V184.68Z" fill="#FFDA54"/>
<path d="M57.6923 184.68H46.1539V196.218H57.6923V184.68Z" fill="#FFDA54"/>
<path d="M65.3846 184.68H53.8461V196.218H65.3846V184.68Z" fill="#FFDA54"/>
<path d="M73.0769 184.68H61.5384V196.218H73.0769V184.68Z" fill="#FFDA54"/>
<path d="M80.7694 184.68H69.231V196.218H80.7694V184.68Z" fill="#FFDA54"/>
<path d="M88.4614 184.68H76.9229V196.218H88.4614V184.68Z" fill="#FFDA54"/>
<path d="M96.1539 184.68H84.6155V196.218H96.1539V184.68Z" fill="#FFDA54"/>
<path d="M103.846 184.68H92.3077V196.218H103.846V184.68Z" fill="#FFDA54"/>
<path d="M111.538 184.68H100V196.218H111.538V184.68Z" fill="#FFDA54"/>
<path d="M119.231 184.68H107.692V196.218H119.231V184.68Z" fill="#FFDA54"/>
<path d="M126.923 184.68H115.385V196.218H126.923V184.68Z" fill="#FFDA54"/>
<path d="M134.615 184.68H123.077V196.218H134.615V184.68Z" fill="#FFDA54"/>
<path d="M142.308 184.68H130.769V196.218H142.308V184.68Z" fill="#FFDA54"/>
<path d="M150 184.68H138.462V196.218H150V184.68Z" fill="#3D3431"/>
<path d="M157.692 184.68H146.154V196.218H157.692V184.68Z" fill="#3D3431"/>
<path d="M165.385 184.68H153.846V196.218H165.385V184.68Z" fill="#3D3431"/>
<path d="M173.077 184.68H161.538V196.218H173.077V184.68Z" fill="#FFDA54"/>
<path d="M180.769 184.68H169.231V196.218H180.769V184.68Z" fill="#3D3431"/>
<path d="M188.462 184.68H176.923V196.218H188.462V184.68Z" fill="#3D3431"/>
<path d="M196.154 184.68H184.615V196.218H196.154V184.68Z" fill="#FEB964"/>
<path d="M203.846 184.68H192.308V196.218H203.846V184.68Z" fill="#3D3431"/>
<path d="M211.538 184.68H200V196.218H211.538V184.68Z" fill="#FFDA54"/>
<path d="M219.231 184.68H207.692V196.218H219.231V184.68Z" fill="#FFDA54"/>
<path d="M226.923 184.68H215.385V196.218H226.923V184.68Z" fill="#FFDA54"/>
<path d="M234.615 184.68H223.077V196.218H234.615V184.68Z" fill="#FFDA54"/>
<path d="M242.308 184.68H230.769V196.218H242.308V184.68Z" fill="#FFDA54"/>
<path d="M250 184.68H238.462V196.218H250V184.68Z" fill="#FFDA54"/>
<path d="M11.5385 192.372H0V203.911H11.5385V192.372Z" fill="#FFDA54"/>
<path d="M19.2307 192.372H7.69226V203.911H19.2307V192.372Z" fill="#FFDA54"/>
<path d="M26.923 192.372H15.3845V203.911H26.923V192.372Z" fill="#FFDA54"/>
<path d="M34.6155 192.372H23.0771V203.911H34.6155V192.372Z" fill="#FFDA54"/>
<path d="M42.3075 192.372H30.769V203.911H42.3075V192.372Z" fill="#FFDA54"/>
<path d="M50.0001 192.372H38.4616V203.911H50.0001V192.372Z" fill="#FFDA54"/>
<path d="M57.6923 192.372H46.1539V203.911H57.6923V192.372Z" fill="#FFDA54"/>
<path d="M65.3846 192.372H53.8461V203.911H65.3846V192.372Z" fill="#FFDA54"/>
<path d="M73.0769 192.372H61.5384V203.911H73.0769V192.372Z" fill="#FFDA54"/>
<path d="M80.7694 192.372H69.231V203.911H80.7694V192.372Z" fill="#FFDA54"/>
<path d="M88.4614 192.372H76.9229V203.911H88.4614V192.372Z" fill="#FFDA54"/>
<path d="M96.1539 192.372H84.6155V203.911H96.1539V192.372Z" fill="#FFDA54"/>
<path d="M103.846 192.372H92.3077V203.911H103.846V192.372Z" fill="#FFDA54"/>
<path d="M111.538 192.372H100V203.911H111.538V192.372Z" fill="#FFDA54"/>
<path d="M119.231 192.372H107.692V203.911H119.231V192.372Z" fill="#FFDA54"/>
<path d="M126.923 192.372H115.385V203.911H126.923V192.372Z" fill="#FFDA54"/>
<path d="M134.615 192.372H123.077V203.911H134.615V192.372Z" fill="#FFDA54"/>
<path d="M142.308 192.372H130.769V203.911H142.308V192.372Z" fill="#FFDA54"/>
<path d="M150 192.372H138.462V203.911H150V192.372Z" fill="#FFDA54"/>
<path d="M157.692 192.372H146.154V203.911H157.692V192.372Z" fill="#FFDA54"/>
<path d="M165.385 192.372H153.846V203.911H165.385V192.372Z" fill="#FFDA54"/>
<path d="M173.077 192.372H161.538V203.911H173.077V192.372Z" fill="#FFDA54"/>
<path d="M180.769 192.372H169.231V203.911H180.769V192.372Z" fill="#FFDA54"/>
<path d="M188.462 192.372H176.923V203.911H188.462V192.372Z" fill="#3D3431"/>
<path d="M196.154 192.372H184.615V203.911H196.154V192.372Z" fill="#FEB964"/>
<path d="M203.846 192.372H192.308V203.911H203.846V192.372Z" fill="#3D3431"/>
<path d="M211.538 192.372H200V203.911H211.538V192.372Z" fill="#FFDA54"/>
<path d="M219.231 192.372H207.692V203.911H219.231V192.372Z" fill="#FFDA54"/>
<path d="M226.923 192.372H215.385V203.911H226.923V192.372Z" fill="#FFDA54"/>
<path d="M234.615 192.372H223.077V203.911H234.615V192.372Z" fill="#FFDA54"/>
<path d="M242.308 192.372H230.769V203.911H242.308V192.372Z" fill="#FFDA54"/>
<path d="M250 192.372H238.462V203.911H250V192.372Z" fill="#FFDA54"/>
<path d="M11.5385 200.064H0V211.603H11.5385V200.064Z" fill="#FFDA54"/>
<path d="M19.2307 200.064H7.69226V211.603H19.2307V200.064Z" fill="#FFDA54"/>
<path d="M26.923 200.064H15.3845V211.603H26.923V200.064Z" fill="#FFDA54"/>
<path d="M34.6155 200.064H23.0771V211.603H34.6155V200.064Z" fill="#FFDA54"/>
<path d="M42.3075 200.064H30.769V211.603H42.3075V200.064Z" fill="#FFDA54"/>
<path d="M50.0001 200.064H38.4616V211.603H50.0001V200.064Z" fill="#FFDA54"/>
<path d="M57.6923 200.064H46.1539V211.603H57.6923V200.064Z" fill="#FFDA54"/>
<path d="M65.3846 200.064H53.8461V211.603H65.3846V200.064Z" fill="#FFDA54"/>
<path d="M73.0769 200.064H61.5384V211.603H73.0769V200.064Z" fill="#FFDA54"/>
<path d="M80.7694 200.064H69.231V211.603H80.7694V200.064Z" fill="#FFDA54"/>
<path d="M88.4614 200.064H76.9229V211.603H88.4614V200.064Z" fill="#FFDA54"/>
<path d="M96.1539 200.064H84.6155V211.603H96.1539V200.064Z" fill="#FFDA54"/>
<path d="M103.846 200.064H92.3077V211.603H103.846V200.064Z" fill="#FFDA54"/>
<path d="M111.538 200.064H100V211.603H111.538V200.064Z" fill="#FFDA54"/>
<path d="M119.231 200.064H107.692V211.603H119.231V200.064Z" fill="#FFDA54"/>
<path d="M126.923 200.064H115.385V211.603H126.923V200.064Z" fill="#FFDA54"/>
<path d="M134.615 200.064H123.077V211.603H134.615V200.064Z" fill="#FFDA54"/>
<path d="M142.308 200.064H130.769V211.603H142.308V200.064Z" fill="#FFDA54"/>
<path d="M150 200.064H138.462V211.603H150V200.064Z" fill="#FFDA54"/>
<path d="M157.692 200.064H146.154V211.603H157.692V200.064Z" fill="#FFDA54"/>
<path d="M165.385 200.064H153.846V211.603H165.385V200.064Z" fill="#FFDA54"/>
<path d="M173.077 200.064H161.538V211.603H173.077V200.064Z" fill="#FFDA54"/>
<path d="M180.769 200.064H169.231V211.603H180.769V200.064Z" fill="#FFDA54"/>
<path d="M188.462 200.064H176.923V211.603H188.462V200.064Z" fill="#3D3431"/>
<path d="M196.154 200.064H184.615V211.603H196.154V200.064Z" fill="#FEB964"/>
<path d="M203.846 200.064H192.308V211.603H203.846V200.064Z" fill="#3D3431"/>
<path d="M211.538 200.064H200V211.603H211.538V200.064Z" fill="#FFDA54"/>
<path d="M219.231 200.064H207.692V211.603H219.231V200.064Z" fill="#FFDA54"/>
<path d="M226.923 200.064H215.385V211.603H226.923V200.064Z" fill="#FFDA54"/>
<path d="M234.615 200.064H223.077V211.603H234.615V200.064Z" fill="#FFDA54"/>
<path d="M242.308 200.064H230.769V211.603H242.308V200.064Z" fill="#FFDA54"/>
<path d="M250 200.064H238.462V211.603H250V200.064Z" fill="#FFDA54"/>
<path d="M11.5385 207.757H0V219.295H11.5385V207.757Z" fill="#FFDA54"/>
<path d="M19.2307 207.757H7.69226V219.295H19.2307V207.757Z" fill="#FFDA54"/>
<path d="M26.923 207.757H15.3845V219.295H26.923V207.757Z" fill="#FFDA54"/>
<path d="M34.6155 207.757H23.0771V219.295H34.6155V207.757Z" fill="#FFDA54"/>
<path d="M42.3075 207.757H30.769V219.295H42.3075V207.757Z" fill="#FFDA54"/>
<path d="M50.0001 207.757H38.4616V219.295H50.0001V207.757Z" fill="#FFDA54"/>
<path d="M57.6923 207.757H46.1539V219.295H57.6923V207.757Z" fill="#FFDA54"/>
<path d="M65.3846 207.757H53.8461V219.295H65.3846V207.757Z" fill="#FFDA54"/>
<path d="M73.0769 207.757H61.5384V219.295H73.0769V207.757Z" fill="#FFDA54"/>
<path d="M80.7694 207.757H69.231V219.295H80.7694V207.757Z" fill="#FFDA54"/>
<path d="M88.4614 207.757H76.9229V219.295H88.4614V207.757Z" fill="#FFDA54"/>
<path d="M96.1539 207.757H84.6155V219.295H96.1539V207.757Z" fill="#FFDA54"/>
<path d="M103.846 207.757H92.3077V219.295H103.846V207.757Z" fill="#FFDA54"/>
<path d="M111.538 207.757H100V219.295H111.538V207.757Z" fill="#FFDA54"/>
<path d="M119.231 207.757H107.692V219.295H119.231V207.757Z" fill="#FFDA54"/>
<path d="M126.923 207.757H115.385V219.295H126.923V207.757Z" fill="#FFDA54"/>
<path d="M134.615 207.757H123.077V219.295H134.615V207.757Z" fill="#FFDA54"/>
<path d="M142.308 207.757H130.769V219.295H142.308V207.757Z" fill="#FFDA54"/>
<path d="M150 207.757H138.462V219.295H150V207.757Z" fill="#FFDA54"/>
<path d="M157.692 207.757H146.154V219.295H157.692V207.757Z" fill="#FFDA54"/>
<path d="M165.385 207.757H153.846V219.295H165.385V207.757Z" fill="#FFDA54"/>
<path d="M173.077 207.757H161.538V219.295H173.077V207.757Z" fill="#FFDA54"/>
<path d="M180.769 207.757H169.231V219.295H180.769V207.757Z" fill="#FFDA54"/>
<path d="M188.462 207.757H176.923V219.295H188.462V207.757Z" fill="#3D3431"/>
<path d="M196.154 207.757H184.615V219.295H196.154V207.757Z" fill="#3D3431"/>
<path d="M203.846 207.757H192.308V219.295H203.846V207.757Z" fill="#3D3431"/>
<path d="M211.538 207.757H200V219.295H211.538V207.757Z" fill="#FFDA54"/>
<path d="M219.231 207.757H207.692V219.295H219.231V207.757Z" fill="#FFDA54"/>
<path d="M226.923 207.757H215.385V219.295H226.923V207.757Z" fill="#FFDA54"/>
<path d="M234.615 207.757H223.077V219.295H234.615V207.757Z" fill="#FFDA54"/>
<path d="M242.308 207.757H230.769V219.295H242.308V207.757Z" fill="#FFDA54"/>
<path d="M250 207.757H238.462V219.295H250V207.757Z" fill="#FFDA54"/>
<path d="M11.5385 215.449H0V226.988H11.5385V215.449Z" fill="#FFDA54"/>
<path d="M19.2307 215.449H7.69226V226.988H19.2307V215.449Z" fill="#FFDA54"/>
<path d="M26.923 215.449H15.3845V226.988H26.923V215.449Z" fill="#FFDA54"/>
<path d="M34.6155 215.449H23.0771V226.988H34.6155V215.449Z" fill="#FFDA54"/>
<path d="M42.3075 215.449H30.769V226.988H42.3075V215.449Z" fill="#FFDA54"/>
<path d="M50.0001 215.449H38.4616V226.988H50.0001V215.449Z" fill="#FFDA54"/>
<path d="M57.6923 215.449H46.1539V226.988H57.6923V215.449Z" fill="#FFDA54"/>
<path d="M65.3846 215.449H53.8461V226.988H65.3846V215.449Z" fill="#FFDA54"/>
<path d="M73.0769 215.449H61.5384V226.988H73.0769V215.449Z" fill="#FFDA54"/>
<path d="M80.7694 215.449H69.231V226.988H80.7694V215.449Z" fill="#FFDA54"/>
<path d="M88.4614 215.449H76.9229V226.988H88.4614V215.449Z" fill="#FFDA54"/>
<path d="M96.1539 215.449H84.6155V226.988H96.1539V215.449Z" fill="#FFDA54"/>
<path d="M103.846 215.449H92.3077V226.988H103.846V215.449Z" fill="#FFDA54"/>
<path d="M111.538 215.449H100V226.988H111.538V215.449Z" fill="#FFDA54"/>
<path d="M119.231 215.449H107.692V226.988H119.231V215.449Z" fill="#FFDA54"/>
<path d="M126.923 215.449H115.385V226.988H126.923V215.449Z" fill="#FFDA54"/>
<path d="M134.615 215.449H123.077V226.988H134.615V215.449Z" fill="#FFDA54"/>
<path d="M142.308 215.449H130.769V226.988H142.308V215.449Z" fill="#FFDA54"/>
<path d="M150 215.449H138.462V226.988H150V215.449Z" fill="#FFDA54"/>
<path d="M157.692 215.449H146.154V226.988H157.692V215.449Z" fill="#FFDA54"/>
<path d="M165.385 215.449H153.846V226.988H165.385V215.449Z" fill="#FFDA54"/>
<path d="M173.077 215.449H161.538V226.988H173.077V215.449Z" fill="#FFDA54"/>
<path d="M180.769 215.449H169.231V226.988H180.769V215.449Z" fill="#FFDA54"/>
<path d="M188.462 215.449H176.923V226.988H188.462V215.449Z" fill="#FFDA54"/>
<path d="M196.154 215.449H184.615V226.988H196.154V215.449Z" fill="#3D3431"/>
<path d="M203.846 215.449H192.308V226.988H203.846V215.449Z" fill="#FFDA54"/>
<path d="M211.538 215.449H200V226.988H211.538V215.449Z" fill="#FFDA54"/>
<path d="M219.231 215.449H207.692V226.988H219.231V215.449Z" fill="#FFDA54"/>
<path d="M226.923 215.449H215.385V226.988H226.923V215.449Z" fill="#FFDA54"/>
<path d="M234.615 215.449H223.077V226.988H234.615V215.449Z" fill="#FFDA54"/>
<path d="M242.308 215.449H230.769V226.988H242.308V215.449Z" fill="#FFDA54"/>
<path d="M250 215.449H238.462V226.988H250V215.449Z" fill="#FFDA54"/>
<path d="M11.5385 223.142H0V234.68H11.5385V223.142Z" fill="#FFDA54"/>
<path d="M19.2307 223.142H7.69226V234.68H19.2307V223.142Z" fill="#FFDA54"/>
<path d="M26.923 223.142H15.3845V234.68H26.923V223.142Z" fill="#FFDA54"/>
<path d="M34.6155 223.142H23.0771V234.68H34.6155V223.142Z" fill="#FFDA54"/>
<path d="M42.3075 223.142H30.769V234.68H42.3075V223.142Z" fill="#FFDA54"/>
<path d="M50.0001 223.142H38.4616V234.68H50.0001V223.142Z" fill="#FFDA54"/>
<path d="M57.6923 223.142H46.1539V234.68H57.6923V223.142Z" fill="#FFDA54"/>
<path d="M65.3846 223.142H53.8461V234.68H65.3846V223.142Z" fill="#FFDA54"/>
<path d="M73.0769 223.142H61.5384V234.68H73.0769V223.142Z" fill="#FFDA54"/>
<path d="M80.7694 223.142H69.231V234.68H80.7694V223.142Z" fill="#FFDA54"/>
<path d="M88.4614 223.142H76.9229V234.68H88.4614V223.142Z" fill="#FFDA54"/>
<path d="M96.1539 223.142H84.6155V234.68H96.1539V223.142Z" fill="#FFDA54"/>
<path d="M103.846 223.142H92.3077V234.68H103.846V223.142Z" fill="#FFDA54"/>
<path d="M111.538 223.142H100V234.68H111.538V223.142Z" fill="#FFDA54"/>
<path d="M119.231 223.142H107.692V234.68H119.231V223.142Z" fill="#FFDA54"/>
<path d="M126.923 223.142H115.385V234.68H126.923V223.142Z" fill="#FFDA54"/>
<path d="M134.615 223.142H123.077V234.68H134.615V223.142Z" fill="#FFDA54"/>
<path d="M142.308 223.142H130.769V234.68H142.308V223.142Z" fill="#FFDA54"/>
<path d="M150 223.142H138.462V234.68H150V223.142Z" fill="#FFDA54"/>
<path d="M157.692 223.142H146.154V234.68H157.692V223.142Z" fill="#FFDA54"/>
<path d="M165.385 223.142H153.846V234.68H165.385V223.142Z" fill="#FFDA54"/>
<path d="M173.077 223.142H161.538V234.68H173.077V223.142Z" fill="#FFDA54"/>
<path d="M180.769 223.142H169.231V234.68H180.769V223.142Z" fill="#FFDA54"/>
<path d="M188.462 223.142H176.923V234.68H188.462V223.142Z" fill="#FFDA54"/>
<path d="M196.154 223.142H184.615V234.68H196.154V223.142Z" fill="#FFDA54"/>
<path d="M203.846 223.142H192.308V234.68H203.846V223.142Z" fill="#FFDA54"/>
<path d="M211.538 223.142H200V234.68H211.538V223.142Z" fill="#FFDA54"/>
<path d="M219.231 223.142H207.692V234.68H219.231V223.142Z" fill="#FFDA54"/>
<path d="M226.923 223.142H215.385V234.68H226.923V223.142Z" fill="#FFDA54"/>
<path d="M234.615 223.142H223.077V234.68H234.615V223.142Z" fill="#FFDA54"/>
<path d="M242.308 223.142H230.769V234.68H242.308V223.142Z" fill="#FFDA54"/>
<path d="M250 223.142H238.462V234.68H250V223.142Z" fill="#FFDA54"/>
<path d="M11.5385 230.834H0V242.372H11.5385V230.834Z" fill="#FFDA54"/>
<path d="M19.2307 230.834H7.69226V242.372H19.2307V230.834Z" fill="#FFDA54"/>
<path d="M26.923 230.834H15.3845V242.372H26.923V230.834Z" fill="#FFDA54"/>
<path d="M34.6155 230.834H23.0771V242.372H34.6155V230.834Z" fill="#FFDA54"/>
<path d="M42.3075 230.834H30.769V242.372H42.3075V230.834Z" fill="#FFDA54"/>
<path d="M50.0001 230.834H38.4616V242.372H50.0001V230.834Z" fill="#FFDA54"/>
<path d="M57.6923 230.834H46.1539V242.372H57.6923V230.834Z" fill="#FFDA54"/>
<path d="M65.3846 230.834H53.8461V242.372H65.3846V230.834Z" fill="#FFDA54"/>
<path d="M73.0769 230.834H61.5384V242.372H73.0769V230.834Z" fill="#FFDA54"/>
<path d="M80.7694 230.834H69.231V242.372H80.7694V230.834Z" fill="#FFDA54"/>
<path d="M88.4614 230.834H76.9229V242.372H88.4614V230.834Z" fill="#FFDA54"/>
<path d="M96.1539 230.834H84.6155V242.372H96.1539V230.834Z" fill="#FFDA54"/>
<path d="M103.846 230.834H92.3077V242.372H103.846V230.834Z" fill="#FFDA54"/>
<path d="M111.538 230.834H100V242.372H111.538V230.834Z" fill="#FFDA54"/>
<path d="M119.231 230.834H107.692V242.372H119.231V230.834Z" fill="#FFDA54"/>
<path d="M126.923 230.834H115.385V242.372H126.923V230.834Z" fill="#FFDA54"/>
<path d="M134.615 230.834H123.077V242.372H134.615V230.834Z" fill="#FFDA54"/>
<path d="M142.308 230.834H130.769V242.372H142.308V230.834Z" fill="#FFDA54"/>
<path d="M150 230.834H138.462V242.372H150V230.834Z" fill="#FFDA54"/>
<path d="M157.692 230.834H146.154V242.372H157.692V230.834Z" fill="#FFDA54"/>
<path d="M165.385 230.834H153.846V242.372H165.385V230.834Z" fill="#FFDA54"/>
<path d="M173.077 230.834H161.538V242.372H173.077V230.834Z" fill="#FFDA54"/>
<path d="M180.769 230.834H169.231V242.372H180.769V230.834Z" fill="#FFDA54"/>
<path d="M188.462 230.834H176.923V242.372H188.462V230.834Z" fill="#FFDA54"/>
<path d="M196.154 230.834H184.615V242.372H196.154V230.834Z" fill="#FFDA54"/>
<path d="M203.846 230.834H192.308V242.372H203.846V230.834Z" fill="#FFDA54"/>
<path d="M211.538 230.834H200V242.372H211.538V230.834Z" fill="#FFDA54"/>
<path d="M219.231 230.834H207.692V242.372H219.231V230.834Z" fill="#FFDA54"/>
<path d="M226.923 230.834H215.385V242.372H226.923V230.834Z" fill="#FFDA54"/>
<path d="M234.615 230.834H223.077V242.372H234.615V230.834Z" fill="#FFDA54"/>
<path d="M242.308 230.834H230.769V242.372H242.308V230.834Z" fill="#FFDA54"/>
<path d="M250 230.834H238.462V242.372H250V230.834Z" fill="#FFDA54"/>
<path d="M11.5385 238.526H0V250.065H11.5385V238.526Z" fill="#FFDA54"/>
<path d="M19.2307 238.526H7.69226V250.065H19.2307V238.526Z" fill="#FFDA54"/>
<path d="M26.923 238.526H15.3845V250.065H26.923V238.526Z" fill="#FFDA54"/>
<path d="M34.6155 238.526H23.0771V250.065H34.6155V238.526Z" fill="#FFDA54"/>
<path d="M42.3075 238.526H30.769V250.065H42.3075V238.526Z" fill="#FFDA54"/>
<path d="M50.0001 238.526H38.4616V250.065H50.0001V238.526Z" fill="#FFDA54"/>
<path d="M57.6923 238.526H46.1539V250.065H57.6923V238.526Z" fill="#FFDA54"/>
<path d="M65.3846 238.526H53.8461V250.065H65.3846V238.526Z" fill="#FFDA54"/>
<path d="M73.0769 238.526H61.5384V250.065H73.0769V238.526Z" fill="#FFDA54"/>
<path d="M80.7694 238.526H69.231V250.065H80.7694V238.526Z" fill="#FFDA54"/>
<path d="M88.4614 238.526H76.9229V250.065H88.4614V238.526Z" fill="#FFDA54"/>
<path d="M96.1539 238.526H84.6155V250.065H96.1539V238.526Z" fill="#FFDA54"/>
<path d="M103.846 238.526H92.3077V250.065H103.846V238.526Z" fill="#FFDA54"/>
<path d="M111.538 238.526H100V250.065H111.538V238.526Z" fill="#FFDA54"/>
<path d="M119.231 238.526H107.692V250.065H119.231V238.526Z" fill="#FFDA54"/>
<path d="M126.923 238.526H115.385V250.065H126.923V238.526Z" fill="#FFDA54"/>
<path d="M134.615 238.526H123.077V250.065H134.615V238.526Z" fill="#FFDA54"/>
<path d="M142.308 238.526H130.769V250.065H142.308V238.526Z" fill="#FFDA54"/>
<path d="M150 238.526H138.462V250.065H150V238.526Z" fill="#FFDA54"/>
<path d="M157.692 238.526H146.154V250.065H157.692V238.526Z" fill="#FFDA54"/>
<path d="M165.385 238.526H153.846V250.065H165.385V238.526Z" fill="#FFDA54"/>
<path d="M173.077 238.526H161.538V250.065H173.077V238.526Z" fill="#FFDA54"/>
<path d="M180.769 238.526H169.231V250.065H180.769V238.526Z" fill="#FFDA54"/>
<path d="M188.462 238.526H176.923V250.065H188.462V238.526Z" fill="#FFDA54"/>
<path d="M196.154 238.526H184.615V250.065H196.154V238.526Z" fill="#FFDA54"/>
<path d="M203.846 238.526H192.308V250.065H203.846V238.526Z" fill="#FFDA54"/>
<path d="M211.538 238.526H200V250.065H211.538V238.526Z" fill="#FFDA54"/>
<path d="M219.231 238.526H207.692V250.065H219.231V238.526Z" fill="#FFDA54"/>
<path d="M226.923 238.526H215.385V250.065H226.923V238.526Z" fill="#FFDA54"/>
<path d="M234.615 238.526H223.077V250.065H234.615V238.526Z" fill="#FFDA54"/>
<path d="M242.308 238.526H230.769V250.065H242.308V238.526Z" fill="#FFDA54"/>
<path d="M250 238.526H238.462V250.065H250V238.526Z" fill="#FFDA54"/>
</svg>
